<svg width="36" height="36" viewBox="0 0 36 36" fill="none" xmlns="http://www.w3.org/2000/svg">
<g clip-path="url(#clip0_1_301)">
<path d="M12.375 15.653L19.125 22.403V30.9375C19.125 31.0867 19.0657 31.2298 18.9602 31.3352C18.8548 31.4407 18.7117 31.5 18.5625 31.5H6.75C6.15326 31.5 5.58097 31.2629 5.15901 30.841C4.73705 30.419 4.5 29.8467 4.5 29.25V6.75C4.5 6.15326 4.73705 5.58097 5.15901 5.15901C5.58097 4.73705 6.15326 4.5 6.75 4.5H9.5625C9.71168 4.5 9.85476 4.55926 9.96025 4.66475C10.0657 4.77024 10.125 4.91332 10.125 5.0625V21.5691C9.37438 21.8344 8.74175 22.3566 8.33891 23.0434C7.93608 23.7301 7.78897 24.5371 7.9236 25.3218C8.05824 26.1064 8.46593 26.8183 9.07463 27.3314C9.68334 27.8446 10.4539 28.126 11.25 28.126C12.0461 28.126 12.8167 27.8446 13.4254 27.3314C14.0341 26.8183 14.4418 26.1064 14.5764 25.3218C14.711 24.5371 14.5639 23.7301 14.1611 23.0434C13.7582 22.3566 13.1256 21.8344 12.375 21.5691V15.653ZM11.25 25.875C11.4725 25.875 11.69 25.809 11.875 25.6854C12.06 25.5618 12.2042 25.3861 12.2894 25.1805C12.3745 24.975 12.3968 24.7488 12.3534 24.5305C12.31 24.3123 12.2028 24.1118 12.0455 23.9545C11.8882 23.7972 11.6877 23.69 11.4695 23.6466C11.2512 23.6032 11.025 23.6255 10.8195 23.7106C10.6139 23.7958 10.4382 23.94 10.3146 24.125C10.191 24.31 10.125 24.5275 10.125 24.75C10.125 25.0484 10.2435 25.3345 10.4545 25.5455C10.6655 25.7565 10.9516 25.875 11.25 25.875ZM25.875 14.625C25.875 14.4025 25.809 14.185 25.6854 14C25.5618 13.815 25.3861 13.6708 25.1805 13.5856C24.975 13.5005 24.7488 13.4782 24.5305 13.5216C24.3123 13.565 24.1118 13.6722 23.9545 13.8295C23.7972 13.9868 23.69 14.1873 23.6466 14.4055C23.6032 14.6238 23.6255 14.85 23.7106 15.0555C23.7958 15.2611 23.94 15.4368 24.125 15.5604C24.31 15.684 24.5275 15.75 24.75 15.75C25.0484 15.75 25.3345 15.6315 25.5455 15.4205C25.7565 15.2095 25.875 14.9234 25.875 14.625ZM29.25 4.5H21.9375C21.7883 4.5 21.6452 4.55926 21.5398 4.66475C21.4343 4.77024 21.375 4.91332 21.375 5.0625V9.65953L23.2959 11.5805C24.0143 11.2373 24.831 11.1591 25.6014 11.3598C26.3719 11.5604 27.0466 12.027 27.5064 12.6771C27.9661 13.3271 28.1812 14.1188 28.1136 14.9121C28.0461 15.7054 27.7003 16.4493 27.1373 17.0123C26.5743 17.5753 25.8304 17.9211 25.0371 17.9886C24.2438 18.0562 23.4521 17.8411 22.8021 17.3814C22.152 16.9216 21.6854 16.2469 21.4848 15.4764C21.2841 14.706 21.3623 13.8893 21.7055 13.1709L19.4555 10.9209C19.3508 10.8165 19.2677 10.6924 19.211 10.5559C19.1543 10.4193 19.1251 10.2729 19.125 10.125V5.0625C19.125 4.91332 19.0657 4.77024 18.9602 4.66475C18.8548 4.55926 18.7117 4.5 18.5625 4.5H12.9375C12.7883 4.5 12.6452 4.55926 12.5398 4.66475C12.4343 4.77024 12.375 4.91332 12.375 5.0625V12.472L21.0459 21.1416C21.1504 21.2461 21.2332 21.3702 21.2897 21.5068C21.3461 21.6434 21.3751 21.7897 21.375 21.9375V30.9375C21.375 31.0867 21.4343 31.2298 21.5398 31.3352C21.6452 31.4407 21.7883 31.5 21.9375 31.5H29.25C29.8467 31.5 30.419 31.2629 30.841 30.841C31.2629 30.419 31.5 29.8467 31.5 29.25V6.75C31.5 6.15326 31.2629 5.58097 30.841 5.15901C30.419 4.73705 29.8467 4.5 29.25 4.5Z" fill="white"/>
</g>
<defs>
<clipPath id="clip0_1_301">
<rect width="36" height="36" fill="white"/>
</clipPath>
</defs>
</svg>
