<svg width="1236" height="779" viewBox="0 0 1236 779" fill="none" xmlns="http://www.w3.org/2000/svg">
<path d="M64.1323 767.275C88.5865 774.245 114.214 777.952 140.448 778.299C168.599 778.674 196.733 775.174 224.07 767.909C251.812 760.53 278.022 749.447 301.967 734.969C334.738 715.155 364.33 688.777 389.187 657.429C398.449 662.622 407.294 667.243 415.441 671.348C453.273 690.417 492.704 706.363 532.641 718.759C573.664 731.486 615.347 740.505 656.541 745.549C745.038 756.386 829.66 749.192 908.052 724.151C948.863 711.119 988.211 692.538 1025.01 668.929C1061.67 645.397 1094.96 617.419 1123.94 585.767C1185.4 518.616 1223.93 439.133 1235.33 355.896L1169.68 346.898C1150.46 487.097 1037.22 613.336 887.89 661.025C789.837 692.338 677.48 691.35 566.91 659.839C525.833 648.13 485.028 632.218 445.252 612.176C438.38 608.711 431.794 605.24 425.48 601.76C448.436 558.439 463.132 510.225 468.208 461.268C471.572 428.81 468.088 396.217 458.392 369.497C445.229 333.22 421.411 308.572 389.522 298.219C362.205 289.352 332.021 293.078 304.558 308.719C280.457 322.443 260.724 343.847 248.984 368.994C235.074 398.797 230.695 433.274 236.329 468.701C241.415 500.697 254.312 532.057 273.623 559.391C290.808 583.715 311.791 603.977 333.44 620.837C314.481 643.811 292.3 663.377 267.671 678.267C189.991 725.231 88.2083 723.294 20.1556 673.545C-20.0829 644.135 -52.7472 596.681 -76.9244 532.505C-91.7924 493.041 -101.798 451.986 -107.098 410.367C-51.7252 390.71 3.8802 368.532 55.4398 336.741C91.3037 314.629 122.568 289.064 148.375 260.756C177.561 228.739 199.21 193.749 212.72 156.75C227.443 116.423 231.805 72.8598 225.331 30.765C218.388 -14.3532 199.337 -54.28 170.239 -84.6809C145.647 -110.38 117.265 -125.27 88.1589 -127.74C62.1039 -129.947 36.1557 -122.51 11.0418 -105.611C-6.53471 -93.7878 -23.5206 -77.5699 -40.8663 -56.0393C-107.482 26.6517 -151.94 128.042 -169.427 237.167C-186.915 346.293 -176.37 456.495 -138.929 555.863C-110.13 632.295 -69.7608 689.885 -18.9455 727.03C3.79052 743.653 29.4204 756.495 57.2356 765.201C59.522 765.92 61.8254 766.603 64.1297 767.26L64.1323 767.275ZM368.047 360.929C368.391 361.027 368.728 361.123 369.066 361.239C380.981 365.108 390.082 375.488 396.106 392.086C402.365 409.333 404.619 432.055 402.3 454.425C398.251 493.5 386.919 531.194 369.781 565.073C352.544 551.165 338.711 536.662 327.747 521.14C299.702 481.451 292.356 432.727 309.033 397.009C319.469 374.657 346.068 354.657 368.055 360.924L368.047 360.929ZM90.0101 -60.3056C100.576 -57.2938 111.819 -49.8824 122.375 -38.852C161.879 2.42154 173.174 71.8995 150.486 134.034C124.673 204.716 65.6455 252.616 20.665 280.347C-20.2712 305.592 -65.5942 324.671 -111.594 341.552C-112.164 213.721 -69.8726 85.6091 10.7429 -14.4548C37.4308 -47.5828 61.598 -63.4822 82.5616 -61.6996C84.9941 -61.4924 87.481 -61.0266 90.0101 -60.3056Z" fill="#EFE5D6"/>
</svg>
