<svg width="28" height="28" viewBox="0 0 28 28" fill="none" xmlns="http://www.w3.org/2000/svg">
<g clip-path="url(#clip0_1_283)">
<path d="M21.875 4.375H5.24998C4.24534 4.37561 3.27152 4.72196 2.49212 5.35586C1.71272 5.98976 1.17522 6.87259 0.96994 7.85603C0.764656 8.83947 0.904088 9.8636 1.36481 10.7564C1.82554 11.6491 2.57948 12.3561 3.49998 12.7586V21.875C3.49998 22.3391 3.68435 22.7842 4.01254 23.1124C4.34073 23.4406 4.78585 23.625 5.24998 23.625H21.875C22.3391 23.625 22.7842 23.4406 23.1124 23.1124C23.4406 22.7842 23.625 22.3391 23.625 21.875V12.7586C24.5455 12.3561 25.2994 11.6491 25.7601 10.7564C26.2209 9.8636 26.3603 8.83947 26.155 7.85603C25.9497 6.87259 25.4122 5.98976 24.6328 5.35586C23.8534 4.72196 22.8796 4.37561 21.875 4.375ZM15.75 11.375C15.5179 11.375 15.2954 11.4672 15.1313 11.6313C14.9672 11.7954 14.875 12.0179 14.875 12.25C14.875 12.4821 14.9672 12.7046 15.1313 12.8687C15.2954 13.0328 15.5179 13.125 15.75 13.125V21.875H5.24998V13.125C5.48204 13.125 5.7046 13.0328 5.8687 12.8687C6.03279 12.7046 6.12498 12.4821 6.12498 12.25C6.12498 12.0179 6.03279 11.7954 5.8687 11.6313C5.7046 11.4672 5.48204 11.375 5.24998 11.375C4.55378 11.375 3.8861 11.0984 3.39382 10.6062C2.90154 10.1139 2.62498 9.44619 2.62498 8.75C2.62498 8.05381 2.90154 7.38613 3.39382 6.89384C3.8861 6.40156 4.55378 6.125 5.24998 6.125H15.75C16.4462 6.125 17.1138 6.40156 17.6061 6.89384C18.0984 7.38613 18.375 8.05381 18.375 8.75C18.375 9.44619 18.0984 10.1139 17.6061 10.6062C17.1138 11.0984 16.4462 11.375 15.75 11.375Z" fill="white"/>
</g>
<defs>
<clipPath id="clip0_1_283">
<rect width="28" height="28" fill="white"/>
</clipPath>
</defs>
</svg>
