<svg width="20" height="20" viewBox="0 0 20 20" fill="none" xmlns="http://www.w3.org/2000/svg">
<g clip-path="url(#clip0_1_181)">
<path d="M6.875 18.125H13.125" stroke="white" stroke-linecap="round" stroke-linejoin="round"/>
<path d="M10 15.625V11.25" stroke="white" stroke-linecap="round" stroke-linejoin="round"/>
<path d="M7.5 8.75L10 11.25L12.5 8.75" stroke="white" stroke-linecap="round" stroke-linejoin="round"/>
<path d="M6.14844 13.0468C5.40545 12.4663 4.80365 11.7251 4.38824 10.8787C3.97284 10.0324 3.75462 9.10285 3.75 8.16004C3.73125 4.77254 6.4625 1.95301 9.84922 1.87488C11.1617 1.84309 12.4509 2.22543 13.5339 2.96765C14.6168 3.70986 15.4386 4.77427 15.8825 6.00984C16.3264 7.24541 16.3699 8.5894 16.0069 9.85111C15.6439 11.1128 14.8928 12.2282 13.8602 13.0389C13.6324 13.2155 13.4478 13.4417 13.3204 13.7002C13.1931 13.9588 13.1262 14.2429 13.125 14.5311V14.9999C13.125 15.1656 13.0592 15.3246 12.9419 15.4418C12.8247 15.559 12.6658 15.6249 12.5 15.6249H7.5C7.33424 15.6249 7.17527 15.559 7.05806 15.4418C6.94085 15.3246 6.875 15.1656 6.875 14.9999V14.5311C6.87471 14.2448 6.80911 13.9622 6.68321 13.705C6.55731 13.4478 6.37442 13.2227 6.14844 13.0468Z" stroke="white" stroke-linecap="round" stroke-linejoin="round"/>
</g>
<defs>
<clipPath id="clip0_1_181">
<rect width="20" height="20" fill="white"/>
</clipPath>
</defs>
</svg>
