<svg width="71" height="69" viewBox="0 0 71 69" fill="none" xmlns="http://www.w3.org/2000/svg">
<path d="M9.41654 50.9071C10.3231 50.9071 10.9939 50.3019 11.1385 49.4987C11.2765 48.7312 10.8574 47.7129 10.0576 47.6805C8.55926 46.7319 6.89325 48.1699 7.46662 49.6539C7.65177 50.1312 8.60743 50.9071 9.41654 50.9071Z" fill="white"/>
<path d="M70.17 40.7177C70.17 40.5885 70.1468 40.4657 70.1318 40.3405C70.1355 40.3092 70.1462 40.2799 70.1492 40.2484C70.1476 40.2815 70.1363 40.3092 70.1318 40.3405C69.963 38.9313 68.8852 37.8052 67.4947 37.5748C67.7987 25.3437 59.0113 12.0884 44.0772 10.1981C46.1069 8.52989 47.0218 7.86172 47.6582 6.94523C50.3191 3.13009 46.3812 -1.49348 42.716 0.465135C42.3953 0.634479 42.1433 0.91203 41.9165 1.11261C41.5861 0.812211 41.1355 0.506263 40.3615 0.302464C36.2232 -0.799966 32.4265 4.642 37.564 8.84591C38.0902 9.27674 38.6474 9.64783 39.1993 10.0062C23.0014 10.7412 13.1266 24.6894 13.5079 37.6601C13.5101 37.729 13.5345 37.7898 13.5524 37.8532C10.791 39.1987 11.3014 43.4123 14.3425 43.9929C16.0442 44.9419 16.8783 44.7192 34.9167 44.9406C33.5978 45.713 31.5869 47.1276 30.521 47.5392C28.5411 48.3122 26.944 47.8654 24.6541 47.7019C20.6187 47.4319 18.0342 48.929 14.1895 49.1776C14.1351 48.6067 14.0828 48.0375 14.0034 47.4472C13.7894 45.8461 12.3596 44.5715 10.6034 44.4153C7.09115 44.0993 6.65385 44.3433 4.64235 44.2622C3.59355 44.2226 2.6828 44.1905 2.08135 44.7684C2.05406 44.7947 2.04476 44.8335 2.01975 44.8614L1.59976 45.1044C0.793758 45.6638 0.396578 46.7832 0.358519 47.7635C-0.0428505 58.1109 -0.325508 59.2548 0.752957 60.0159C1.18563 60.7665 2.29115 60.3934 2.27185 59.5747C2.1756 55.7229 3.22807 51.6662 3.2361 46.0377C3.2361 45.9927 3.23931 45.9628 3.23717 45.9489C3.57918 45.8086 4.96475 45.9678 6.10746 45.9157C7.34248 45.8611 8.80545 45.905 10.4578 46.0527C11.4392 46.1394 12.2633 46.8329 12.3746 47.6655C13.1815 53.6747 12.6421 58.5484 10.567 63.8256C7.80278 63.3247 5.19467 62.734 2.3382 62.2331C1.89085 62.1636 1.46598 62.4547 1.38679 62.902C1.30866 63.3493 1.60832 63.7753 2.05566 63.8534C5.00326 64.3666 7.90017 65.0298 10.9384 65.5625C11.3439 65.627 11.6999 65.4045 11.8395 65.0659C12.2282 64.1249 12.554 63.2 12.8516 62.2792C27.0753 70.4802 43.4118 70.8687 56.7276 62.941C58.6582 61.7916 60.5647 60.3518 61.7863 58.5169C62.4975 57.809 63.095 56.9874 63.2094 56.1126C63.3736 54.8548 62.5106 53.5334 60.8067 53.4606C59.6409 53.4735 58.5449 54.1443 57.732 54.3511C54.8965 55.3323 52.746 56.2245 50.6077 56.6702C48.113 57.1914 45.2866 57.7811 42.3885 57.8046C38.6881 57.8347 34.391 57.8121 31.079 57.1921C34.4189 55.8136 36.4058 54.5591 38.4437 53.0229C38.479 53.0005 38.5079 52.978 38.5208 52.963C38.6997 52.8654 40.4211 51.5042 42.0236 50.4031C43.0107 49.7198 43.9757 48.9318 44.241 47.7511C44.4965 46.8348 44.3718 45.8994 43.7371 45.0489C62.6962 45.2816 64.826 45.6808 67.5561 43.9946C69.0406 43.7192 70.17 42.42 70.17 40.8579V40.7177ZM42.6239 46.3716C42.8002 46.8383 42.7049 47.3578 42.4752 47.7896C42.1638 48.2851 41.6629 48.6544 41.0903 49.0503C40.243 49.6324 37.66 51.5377 37.5886 51.621C37.0989 51.8946 34.2968 54.4679 28.4853 56.4107C28.2861 56.3106 28.1035 56.2072 27.9557 56.0966C27.5918 55.8237 27.0771 55.8986 26.8052 56.2624C26.5334 56.6263 26.6073 57.1411 26.9711 57.4129C29.9547 59.6433 38.848 59.4254 42.3789 59.4484C43.5157 59.3285 44.1485 59.6977 50.9437 58.2798C53.1442 57.821 55.3003 56.9436 58.1944 55.9264C59.2193 55.6806 60.818 54.6614 61.3868 55.3271C62.4944 56.6169 58.3507 59.096 57.1199 59.9386C49.486 64.9654 40.3135 67.1955 30.9384 65.3977C25.2116 64.3291 18.8629 61.7582 13.8406 59.7852C13.7697 59.7109 13.6843 59.6524 13.5877 59.6119C14.2426 56.7719 14.4745 53.9099 14.3086 50.8163C18.105 50.5655 21.0361 49.0783 24.6231 49.3543C27.102 49.5281 28.7814 49.9854 31.1717 49.0503C31.2766 49.0097 31.3996 48.9604 31.4275 48.939C33.8912 47.9441 37.6223 43.9932 41.3429 45.2682C41.6254 45.371 42.3114 45.6717 42.5769 46.2464L43.3228 45.9018L42.6239 46.3716ZM40.5938 2.15606C40.8006 2.27427 40.9644 2.53402 41.3847 2.7329C42.4187 3.22178 43.209 2.0717 43.4876 1.91633C45.6458 0.766853 47.9943 3.59117 46.3087 6.00666C45.8507 6.66654 45.451 6.94147 41.9123 9.84977C40.8439 9.06265 39.5804 8.37325 38.6064 7.57451C34.6165 4.30803 37.8746 0.626503 40.5938 2.15606ZM15.2111 37.5221H15.1524C15.152 37.5112 15.1529 37.5001 15.1526 37.4892C15.171 37.5019 15.1922 37.5102 15.2111 37.5221ZM13.3891 40.7177C13.3891 39.8615 14.0858 39.1659 14.942 39.1659H66.9733C67.8294 39.1659 68.5261 39.8615 68.5261 40.7177V40.8579C68.5261 41.7141 67.8294 42.4097 66.9733 42.4097H14.942C14.0858 42.4097 13.3891 41.7141 13.3891 40.8579V40.7177Z" fill="white"/>
<path d="M47.1113 17.0767C50.2085 18.0901 52.8358 20.3344 54.3181 23.2357C54.5253 23.6395 55.0202 23.799 55.4247 23.5931C55.8281 23.3866 55.9887 22.8911 55.7821 22.4865C54.103 19.2032 51.1299 16.6614 47.6229 15.5142C47.1862 15.3729 46.7271 15.6083 46.5858 16.0396C46.4446 16.4709 46.68 16.9354 47.1113 17.0767Z" fill="#055E2C"/>
<path d="M55.491 25.8364L55.3476 26.1178C55.0675 26.6664 55.4687 27.3143 56.0786 27.3143C56.7359 27.3143 56.8683 26.6951 56.9551 26.5855C57.1616 26.181 57.0011 25.6855 56.5976 25.4789C56.192 25.2724 55.6976 25.435 55.491 25.8364Z" fill="#055E2C"/>
<path d="M55.7746 11.1769C55.871 9.56945 56.2348 7.99946 56.8555 6.51188C57.03 6.09235 56.832 5.61183 56.4135 5.43632C55.9951 5.26402 55.5135 5.45772 55.338 5.87831C54.6466 7.53713 54.241 9.28585 54.1329 11.0784C54.1062 11.5311 54.4519 11.9207 54.9046 11.9485C55.3479 11.9762 55.7464 11.6381 55.7746 11.1769Z" fill="white"/>
<path d="M62.2108 8.48513L58.5475 13.0003C58.2607 13.3524 58.3153 13.8704 58.6674 14.1561C59.0172 14.4419 59.5378 14.3897 59.8232 14.0363L63.4865 9.52109C63.7733 9.16899 63.7188 8.65101 63.3667 8.36526C63.0156 8.07845 62.4944 8.13303 62.2108 8.48513Z" fill="white"/>
<path d="M63.5229 17.3743C63.9358 17.3743 63.8497 17.2667 68.1869 14.7523C68.5786 14.5222 68.7081 14.0181 68.4769 13.6275C68.2457 13.2369 67.7417 13.102 67.3521 13.3375L63.1045 15.8449C62.3825 16.2691 62.6927 17.3743 63.5229 17.3743Z" fill="white"/>
</svg>
