<svg width="28" height="28" viewBox="0 0 28 28" fill="none" xmlns="http://www.w3.org/2000/svg">
<g clip-path="url(#clip0_1_277)">
<path d="M26.25 11.1562C26.25 18.8125 14.898 25.0097 14.4145 25.2656C14.2871 25.3342 14.1447 25.37 14 25.37C13.8553 25.37 13.7129 25.3342 13.5855 25.2656C13.2191 25.0688 6.63469 21.4714 3.44859 16.4183C3.4075 16.3521 3.38482 16.2761 3.38291 16.1982C3.38099 16.1204 3.39991 16.0434 3.43771 15.9752C3.47551 15.9071 3.53082 15.8503 3.59791 15.8107C3.66501 15.7711 3.74146 15.7502 3.81937 15.75H7.875C8.01909 15.7501 8.16098 15.7146 8.28805 15.6467C8.41513 15.5787 8.52347 15.4805 8.60344 15.3606L9.625 13.8294L12.3966 17.9856C12.5028 18.1449 12.6583 18.2649 12.8392 18.3274C13.0202 18.3898 13.2166 18.3912 13.3984 18.3313C13.5912 18.2662 13.7559 18.1373 13.8655 17.9659L15.3431 15.75H17.5C17.62 15.7503 17.7387 15.7259 17.8488 15.6783C17.9589 15.6308 18.0581 15.5611 18.1402 15.4736C18.2222 15.3861 18.2854 15.2827 18.3258 15.1697C18.3662 15.0568 18.3829 14.9367 18.375 14.817C18.3554 14.5921 18.2515 14.3829 18.0842 14.2314C17.9168 14.0799 17.6984 13.9972 17.4727 14H14.875C14.7309 13.9999 14.589 14.0354 14.4619 14.1033C14.3349 14.1713 14.2265 14.2695 14.1466 14.3894L13.125 15.9206L10.3534 11.7644C10.2472 11.6051 10.0917 11.4851 9.91078 11.4226C9.72982 11.3602 9.53337 11.3588 9.35156 11.4188C9.15885 11.4838 8.99409 11.6127 8.88453 11.7841L7.40688 14H2.57359C2.48009 14.0003 2.38897 13.9706 2.31358 13.9152C2.23819 13.8599 2.1825 13.7819 2.15469 13.6927C1.89078 12.8729 1.7543 12.0174 1.75 11.1562C1.75203 9.35837 2.46713 7.63471 3.73842 6.36342C5.00971 5.09213 6.73337 4.37703 8.53125 4.375C10.7898 4.375 12.7673 5.34625 14 6.98797C15.2327 5.34625 17.2102 4.375 19.4688 4.375C21.2666 4.37703 22.9903 5.09213 24.2616 6.36342C25.5329 7.63471 26.248 9.35837 26.25 11.1562Z" fill="white"/>
</g>
<defs>
<clipPath id="clip0_1_277">
<rect width="28" height="28" fill="white"/>
</clipPath>
</defs>
</svg>
