<svg width="71" height="65" viewBox="0 0 71 65" fill="none" xmlns="http://www.w3.org/2000/svg">
<path d="M66.1111 6.89913C65.9927 6.53608 65.6538 6.29021 65.2724 6.29021C65.2701 6.29021 65.2689 6.29021 65.2666 6.29021L51.7781 6.37667L51.5408 0.844439C51.5212 0.371094 51.1306 0 50.6607 0C50.6481 0 50.6366 -4.41214e-08 50.6251 0.0011489C40.6924 0.391839 30.7181 -0.0502323 20.7262 0.344669C20.2793 0.361903 19.9162 0.710018 19.8806 1.15579C19.7523 2.78098 19.6576 4.69231 19.5682 6.58598L5.11037 6.67279C4.72779 6.67509 4.39116 6.92325 4.27512 7.2886C2.54447 12.741 0.0433366 17.9601 7.76096e-05 22.5103C-0.0112293 23.6693 1.21321 26.4691 3.4984 27.6652C3.62353 38.3426 3.9302 52.101 3.90403 60.9421C3.90164 61.43 4.29938 61.8267 4.78638 61.8267H4.78983L5.76453 61.8231C5.75706 61.8397 5.77113 61.806 5.76453 61.8231C11.9337 66.6695 37.7812 62.3679 67.5687 64.9581C66.9361 63.9129 66.4627 62.7736 66.155 61.5913C66.6741 61.5727 67.0417 61.1364 67.0049 60.6491C66.3717 52.1865 66.3225 38.9914 66.3591 28.2209C68.957 27.6453 70.8789 25.037 70.9663 22.4552C71.1384 17.0357 67.4692 11.0699 66.1111 6.89913ZM2.10701 23.3991L9.60421 23.3892C8.3488 27.5555 3.33336 27.4667 2.10701 23.3991ZM20.8041 60.0019L12.1637 60.0343C11.9524 53.1878 11.8688 46.2427 11.9164 39.3681C14.9893 39.485 18.0418 39.2324 21.0444 39.3497C20.7275 46.7088 20.4912 53.8054 20.8041 60.0019ZM22.5708 59.9953C22.2428 53.6113 22.5103 46.2127 22.8447 38.5535C22.8654 38.0744 22.5012 37.6666 22.0221 37.6344C18.3709 37.391 14.6673 37.7955 11.0996 37.5586C10.6053 37.5168 10.1635 37.9206 10.1586 38.4306C10.0963 45.6132 10.1788 52.8801 10.3981 60.0409L5.66989 60.0586C5.67686 51.3546 5.40243 39.0923 5.27036 28.2255C7.54784 28.4946 9.59008 27.1588 10.6986 25.278C13.9986 30.4352 20.5807 30.1717 23.6421 25.0586C26.7632 30.2442 33.4034 30.2442 36.5511 25.1459C39.5311 30.0042 45.8137 30.0327 48.7995 25.1103C51.6714 29.7385 57.6586 29.7555 60.5665 25.1712C61.4124 26.785 62.9191 27.9932 64.5942 28.2765C64.559 38.6762 64.6049 51.3183 65.1782 59.8357L22.5708 59.9953ZM11.7002 23.3864L22.5152 23.372C20.2482 28.6014 13.9204 28.492 11.7002 23.3864ZM24.7655 23.369L35.4821 23.3548C33.3121 28.3928 27.0324 28.5892 24.7655 23.369ZM37.6285 23.3519L47.7091 23.3386C45.6955 28.208 39.6871 28.3141 37.6285 23.3519ZM49.8818 23.3357L59.5391 23.3228C57.4896 28.098 51.8146 27.8294 49.8818 23.3357ZM61.7412 23.3199L69.0074 23.3103C68.0665 27.414 62.8494 27.8417 61.7412 23.3199ZM1.80844 21.6349C2.13318 17.8033 4.1859 13.2344 5.7595 8.43405L19.4849 8.35126C19.4011 10.1282 19.3103 11.9039 19.1901 13.4145C19.1491 13.9303 19.5589 14.367 20.0702 14.367L51.1754 14.3842C51.9506 14.3842 52.2049 13.5796 52.0543 12.8171L51.8538 8.14101L64.6439 8.05951C66.0596 12.0036 68.971 17.0446 69.1936 21.5453L1.80844 21.6349Z" fill="#BD6E00"/>
<path d="M14.2303 48.6833C13.7432 48.6833 13.348 49.0786 13.348 49.5657V49.7576C13.348 50.2447 13.7432 50.6399 14.2303 50.6399C14.7174 50.6399 15.1127 50.2447 15.1127 49.7576V49.5657C15.1127 49.0786 14.7174 48.6833 14.2303 48.6833Z" fill="#BD6E00"/>
<path d="M54.6186 33.1458H33.6478C33.1607 33.1458 32.7655 33.541 32.7655 34.0281V49.9495C32.7655 50.4367 33.1607 50.8319 33.6478 50.8319H54.6232C55.1111 50.8319 55.5056 50.4355 55.5056 49.9495L55.501 34.0281C55.501 33.541 55.1058 33.1458 54.6186 33.1458Z" fill="#BD6E00"/>
</svg>
