<svg width="719" height="506" viewBox="0 0 719 506" fill="none" xmlns="http://www.w3.org/2000/svg">
<path d="M957.012 656.32C933.094 656.32 908.957 653.071 885.137 646.634C859.577 639.728 835.03 629.329 812.175 615.736C788.985 601.935 768.133 585.185 750.207 565.953C725.673 539.633 705.707 508.204 691.305 473.508C681.588 475.812 672.396 477.707 663.967 479.317C624.83 486.796 585.051 491.045 545.73 491.959C505.34 492.891 465.31 490.307 426.747 484.26C343.903 471.27 269.213 442.999 204.759 400.22C171.203 377.953 140.403 351.053 113.205 320.27C86.1057 289.591 63.2081 255.767 45.1601 219.736C6.87739 143.297 -7.47557 61.6286 3.67086 -16.4498L65.3763 -7.67827C46.6076 123.834 116.491 266.94 239.273 348.42C319.894 401.921 421.781 429.942 529.923 429.948C570.099 429.948 611.112 426.084 652.259 418.227C659.368 416.867 666.221 415.429 672.83 413.911C663.234 368.895 662.373 321.587 670.405 276.084C675.731 245.916 687.286 217.389 702.946 195.762C724.207 166.399 752.107 150.277 783.622 149.137C810.618 148.161 836.96 159.292 857.769 180.48C876.031 199.072 888.362 223.472 892.497 249.196C897.395 279.68 892.466 311.932 878.236 342.465C865.385 370.041 845.633 395.033 821.117 414.74C799.3 432.277 775.096 445.169 751.166 454.818C762.392 480.438 777.411 503.809 795.85 523.589C854.007 585.977 946.574 610.421 1020.96 583.021C1064.94 566.825 1106.72 532.391 1145.14 480.676C1168.76 448.875 1188.4 414.386 1203.93 378.178C1158.91 346.183 1114.33 311.852 1075.88 269.884C1049.15 240.693 1027.46 209.568 1011.41 177.372C993.267 140.956 982.707 103.798 980.025 66.9195C977.106 26.7251 984.392 -13.7252 1001.1 -50.061C1019.02 -89.0057 1046.54 -120.148 1080.7 -140.105C1109.57 -156.978 1139.09 -163.116 1166.05 -157.855C1190.19 -153.144 1211.74 -139.752 1230.1 -118.033C1242.95 -102.837 1254.14 -83.8245 1264.27 -59.9237C1303.21 31.8698 1317.28 134.843 1304.96 237.858C1292.64 340.873 1254.69 437.647 1195.2 517.719C1149.45 579.309 1098.08 620.911 1042.54 641.368C1017.69 650.523 991.19 655.522 963.785 656.223C961.531 656.284 959.272 656.308 957.018 656.308L957.012 656.32ZM786.877 211.275C786.542 211.275 786.212 211.275 785.876 211.294C774.1 211.72 763.192 218.748 753.463 232.183C743.355 246.142 735.457 266.075 731.787 286.867C725.374 323.184 725.905 360.13 732.672 395.124C751.85 387.005 768.103 377.471 782.022 366.28C817.623 337.667 836.832 295.571 830.956 259.034C827.28 236.17 808.376 211.269 786.871 211.269L786.877 211.275ZM1146.99 -97.4542C1136.66 -97.4542 1124.57 -93.6567 1112.18 -86.4151C1065.81 -59.3202 1037.68 0.49582 1042.18 62.427C1047.3 132.88 1088.34 191.312 1121.88 227.922C1152.4 261.247 1188.48 290.134 1225.74 317.21C1259.21 201.955 1253.99 75.4167 1206.87 -35.6632C1191.27 -72.4379 1173.51 -93.0105 1154.09 -96.7959C1151.83 -97.2348 1149.46 -97.4542 1146.99 -97.4542Z" fill="#055E2C"/>
</svg>
