<svg width="541" height="506" viewBox="0 0 541 506" fill="none" xmlns="http://www.w3.org/2000/svg">
<path d="M1.92028e-05 469.012C2.02483e-05 445.094 3.24904 420.957 9.686 397.137C16.5922 371.577 26.9914 347.03 40.5845 324.175C54.3849 300.985 71.1355 280.133 90.3672 262.207C116.688 237.673 148.117 217.707 182.813 203.305C180.509 193.588 178.613 184.396 177.004 175.967C169.525 136.83 165.276 97.0506 164.362 57.7296C163.429 17.3398 166.013 -22.6896 172.06 -61.2532C185.05 -144.097 213.321 -218.787 256.1 -283.241C278.367 -316.797 305.267 -347.598 336.05 -374.795C366.729 -401.894 400.553 -424.792 436.585 -442.84C513.023 -481.123 594.692 -495.476 672.77 -484.329L663.999 -422.624C532.486 -441.392 389.38 -371.509 307.901 -248.727C254.4 -168.106 226.378 -66.2187 226.372 41.9231C226.372 82.0991 230.237 123.112 238.094 164.259C239.453 171.368 240.892 178.221 242.41 184.83C287.425 175.234 334.733 174.373 380.237 182.405C410.404 187.731 438.931 199.286 460.558 214.946C489.921 236.207 506.044 264.107 507.184 295.622C508.159 322.618 497.028 348.96 475.84 369.769C457.249 388.031 432.848 400.362 407.125 404.497C376.64 409.395 344.389 404.466 313.856 390.236C286.279 377.385 261.288 357.633 241.58 333.117C224.043 311.3 211.151 287.096 201.502 263.166C175.882 274.392 152.512 289.411 132.732 307.85C70.3432 366.006 45.8999 458.574 73.2995 532.959C89.4955 576.94 123.93 618.722 175.644 657.139C207.445 680.764 241.934 700.4 278.142 715.925C310.138 670.906 344.468 626.326 386.436 587.885C415.628 561.145 446.752 539.457 478.949 523.412C515.364 505.267 552.523 494.707 589.401 492.025C629.595 489.106 670.046 496.392 706.381 513.103C745.326 531.016 776.468 558.544 796.425 592.704C813.298 621.574 819.436 651.087 814.176 678.052C809.464 702.189 796.072 723.743 774.353 742.103C759.157 754.953 740.145 766.136 716.244 776.275C624.451 815.211 521.478 829.283 418.462 816.964C315.447 804.645 218.673 766.692 138.602 707.203C77.0117 661.445 35.4093 610.08 14.9525 554.537C5.79695 529.685 0.798602 503.19 0.0976141 475.785C0.0366401 473.531 0.0122261 471.272 0.0122262 469.018L1.92028e-05 469.012ZM445.045 298.877C445.045 298.541 445.045 298.212 445.027 297.876C444.6 286.1 437.572 275.192 424.137 265.463C410.178 255.354 390.246 247.457 369.454 243.787C333.136 237.374 296.191 237.905 261.196 244.672C269.315 263.85 278.849 280.103 290.04 294.022C318.653 329.623 360.749 348.832 397.286 342.956C420.151 339.279 445.051 320.376 445.051 298.871L445.045 298.877ZM753.775 658.99C753.775 648.656 749.977 636.575 742.735 624.182C715.641 577.807 655.825 549.675 593.893 554.177C523.441 559.301 465.008 600.344 428.398 633.881C395.074 664.401 366.187 700.479 339.11 737.736C454.365 771.212 580.904 765.989 691.984 718.869C728.758 703.27 749.331 685.509 753.116 666.087C753.555 663.833 753.775 661.463 753.775 658.99Z" fill="#BD6E00"/>
</svg>
