<svg width="589" height="506" viewBox="0 0 589 506" fill="none" xmlns="http://www.w3.org/2000/svg">
<path d="M839.353 21.2656C846.905 43.9597 851.443 67.8884 852.855 92.5221C854.372 118.956 852.255 145.53 846.573 171.507C840.8 197.869 831.49 222.942 818.902 246.023C801.673 277.613 778.156 306.481 749.781 331.1C755.036 339.593 759.736 347.716 763.925 355.205C783.378 389.98 799.968 426.383 813.251 463.404C826.888 501.433 837.074 540.231 843.512 578.732C857.342 661.439 854.098 741.235 833.857 815.899C823.323 854.768 807.524 892.486 786.903 928.011C766.349 963.411 741.484 995.817 712.994 1024.32C652.552 1084.78 579.592 1124.18 501.988 1138.25L490.829 1076.94C621.54 1053.22 735.263 941.731 773.81 799.505C799.12 706.116 793.54 600.593 759.402 497.98C746.718 459.859 730.102 422.164 709.656 385.603C706.121 379.286 702.593 373.238 699.066 367.447C659.382 390.764 614.766 406.517 569.054 413.263C538.749 417.734 508.032 415.776 482.567 407.746C447.994 396.843 423.887 375.461 412.855 345.917C403.406 320.61 405.651 292.101 419.185 265.667C431.06 242.469 450.32 223.065 473.422 211.02C500.8 196.748 532.958 191.242 566.423 195.105C596.646 198.591 626.595 209.442 653.035 226.483C676.563 241.646 696.437 260.542 713.149 280.202C733.914 261.461 751.347 239.832 764.294 216.091C805.129 141.211 799.097 45.6614 749.613 -16.268C720.36 -52.8859 674.495 -81.6596 613.296 -101.784C575.664 -114.16 536.739 -121.902 497.481 -125.202C481.336 -72.3836 462.837 -19.2452 435.152 30.4804C415.896 65.0685 393.211 95.474 367.727 120.863C338.903 149.578 306.979 171.33 272.834 185.518C235.617 200.978 194.935 206.836 155.182 202.452C112.574 197.75 74.3331 181.464 44.6118 155.352C19.487 133.285 4.34502 107.22 0.822855 79.9733C-2.32702 55.583 3.57492 30.9034 18.386 6.62576C28.7478 -10.3653 43.2568 -26.9789 62.7341 -44.145C137.539 -110.071 230.802 -155.935 332.438 -176.77C434.074 -197.606 537.88 -192.148 632.638 -160.983C705.525 -137.01 761.216 -101.407 798.163 -55.164C814.697 -34.4739 827.805 -10.9123 837.122 14.8696C837.892 16.9888 838.628 19.1252 839.34 21.2637L839.353 21.2656ZM470.787 323.21C470.894 323.528 470.998 323.841 471.121 324.154C475.244 335.193 485.356 343.324 501.176 348.314C517.612 353.498 539.018 354.698 559.906 351.616C596.391 346.235 631.279 334.066 662.347 316.597C648.588 300.963 634.411 288.552 619.397 278.878C581.007 254.131 535 249.196 502.187 266.307C481.653 277.014 463.994 302.812 470.784 323.217L470.787 323.21ZM64.1529 78.9902C67.4157 88.7957 74.8332 99.0597 85.617 108.532C125.968 143.981 191.606 151.788 248.948 127.964C314.18 100.858 356.665 43.4653 380.814 0.0850197C402.798 -39.3952 418.817 -82.7481 432.746 -126.648C312.816 -122.022 194.399 -77.1162 103.878 2.66475C73.9092 29.0764 59.9965 52.4244 62.5369 72.0483C62.832 74.3254 63.3719 76.6431 64.1529 78.9902Z" fill="white"/>
</svg>
