<svg width="20" height="20" viewBox="0 0 20 20" fill="none" xmlns="http://www.w3.org/2000/svg">
<g clip-path="url(#clip0_1_358)">
<path d="M12.5 10C12.5 10.4945 12.3534 10.9778 12.0787 11.3889C11.804 11.8 11.4135 12.1205 10.9567 12.3097C10.4999 12.4989 9.99723 12.5484 9.51227 12.452C9.02732 12.3555 8.58186 12.1174 8.23223 11.7678C7.8826 11.4181 7.6445 10.9727 7.54804 10.4877C7.45157 10.0028 7.50108 9.50011 7.6903 9.04329C7.87952 8.58648 8.19995 8.19603 8.61107 7.92133C9.0222 7.64662 9.50555 7.5 10 7.5C10.663 7.5 11.2989 7.76339 11.7678 8.23223C12.2366 8.70107 12.5 9.33696 12.5 10ZM18.125 6.25V13.75C18.1238 14.9099 17.6624 16.022 16.8422 16.8422C16.022 17.6624 14.9099 18.1238 13.75 18.125H6.25C5.09006 18.1238 3.97798 17.6624 3.15778 16.8422C2.33758 16.022 1.87624 14.9099 1.875 13.75V6.25C1.87624 5.09006 2.33758 3.97798 3.15778 3.15778C3.97798 2.33758 5.09006 1.87624 6.25 1.875H13.75C14.9099 1.87624 16.022 2.33758 16.8422 3.15778C17.6624 3.97798 18.1238 5.09006 18.125 6.25ZM13.75 10C13.75 9.25832 13.5301 8.5333 13.118 7.91661C12.706 7.29993 12.1203 6.81928 11.4351 6.53545C10.7498 6.25162 9.99584 6.17736 9.26841 6.32206C8.54098 6.46675 7.8728 6.8239 7.34835 7.34835C6.8239 7.8728 6.46675 8.54098 6.32206 9.26841C6.17736 9.99584 6.25162 10.7498 6.53545 11.4351C6.81928 12.1203 7.29993 12.706 7.91661 13.118C8.5333 13.5301 9.25832 13.75 10 13.75C10.9942 13.749 11.9475 13.3535 12.6505 12.6505C13.3535 11.9475 13.749 10.9942 13.75 10ZM15.625 5.3125C15.625 5.12708 15.57 4.94582 15.467 4.79165C15.364 4.63748 15.2176 4.51732 15.0463 4.44636C14.875 4.37541 14.6865 4.35684 14.5046 4.39301C14.3227 4.42919 14.1557 4.51848 14.0246 4.64959C13.8935 4.7807 13.8042 4.94775 13.768 5.1296C13.7318 5.31146 13.7504 5.49996 13.8214 5.67127C13.8923 5.84257 14.0125 5.98899 14.1667 6.092C14.3208 6.19502 14.5021 6.25 14.6875 6.25C14.9361 6.25 15.1746 6.15123 15.3504 5.97541C15.5262 5.7996 15.625 5.56114 15.625 5.3125Z" fill="white"/>
</g>
<defs>
<clipPath id="clip0_1_358">
<rect width="20" height="20" fill="white"/>
</clipPath>
</defs>
</svg>
