<svg xmlns="http://www.w3.org/2000/svg" xmlns:xlink="http://www.w3.org/1999/xlink" width="1024" zoomAndPan="magnify" viewBox="0 0 768 767.999994" height="1024" preserveAspectRatio="xMidYMid meet" version="1.0"><defs><g/><clipPath id="4b128472f1"><path d="M 98.785156 88.117188 L 669.535156 88.117188 L 669.535156 658.867188 L 98.785156 658.867188 Z M 98.785156 88.117188 " clip-rule="nonzero"/></clipPath><clipPath id="2105ff4745"><path d="M 98.785156 132.367188 L 98.785156 614.296875 C 98.785156 638.734375 118.597656 658.546875 143.035156 658.546875 L 624.964844 658.546875 C 649.402344 658.546875 669.214844 638.734375 669.214844 614.296875 L 669.214844 132.367188 C 669.214844 107.929688 649.402344 88.117188 624.964844 88.117188 L 143.035156 88.117188 C 118.597656 88.117188 98.785156 107.929688 98.785156 132.367188 Z M 98.785156 132.367188 " clip-rule="nonzero"/></clipPath><clipPath id="9c74405966"><path d="M 42.117188 293.597656 L 760.660156 293.597656 L 760.660156 453.070312 L 42.117188 453.070312 Z M 42.117188 293.597656 " clip-rule="nonzero"/></clipPath><clipPath id="69b423144f"><path d="M 0.117188 0.597656 L 718.660156 0.597656 L 718.660156 160.070312 L 0.117188 160.070312 Z M 0.117188 0.597656 " clip-rule="nonzero"/></clipPath><clipPath id="d9c607278b"><rect x="0" width="719" y="0" height="161"/></clipPath></defs><rect x="-76.8" width="921.6" fill="#ffffff" y="-76.799999" height="921.599993" fill-opacity="1"/><rect x="-76.8" width="921.6" fill="#ffffff" y="-76.799999" height="921.599993" fill-opacity="1"/><g clip-path="url(#4b128472f1)"><g clip-path="url(#2105ff4745)"><path fill="#000000" d="M 384.160156 658.867188 C 226.851562 658.867188 98.785156 530.800781 98.785156 373.492188 C 98.785156 216.1875 226.851562 88.117188 384.160156 88.117188 C 541.46875 88.117188 669.535156 216.1875 669.535156 373.492188 C 669.535156 530.800781 541.46875 658.867188 384.160156 658.867188 Z M 384.160156 92.335938 C 229.101562 92.335938 103.003906 218.433594 103.003906 373.492188 C 103.003906 528.550781 229.101562 654.652344 384.160156 654.652344 C 539.21875 654.652344 665.316406 528.550781 665.316406 373.492188 C 665.316406 218.433594 539.21875 92.335938 384.160156 92.335938 Z M 384.160156 92.335938 " fill-opacity="1" fill-rule="nonzero"/></g></g><g clip-path="url(#9c74405966)"><g transform="matrix(1, 0, 0, 1, 42, 293)"><g clip-path="url(#d9c607278b)"><g clip-path="url(#69b423144f)"><path fill="#ffffff" d="M 0.117188 0.597656 L 718.371094 0.597656 L 718.371094 160.070312 L 0.117188 160.070312 Z M 0.117188 0.597656 " fill-opacity="1" fill-rule="nonzero"/></g></g></g></g><g fill="#000000" fill-opacity="1"><g transform="translate(96.173379, 415.135123)"><g><path d="M 102.03125 -11.375 L 101.875 -11.375 C 99.125 -9.175781 95.6875 -7.0625 91.5625 -5.03125 C 87.445312 -3 82.914062 -1.375 77.96875 -0.15625 C 73.019531 1.050781 67.96875 1.65625 62.8125 1.65625 C 52.8125 1.65625 43.960938 -0.238281 36.265625 -4.03125 C 28.578125 -7.820312 22.585938 -13.039062 18.296875 -19.6875 C 14.015625 -26.34375 11.875 -33.898438 11.875 -42.359375 C 11.875 -52.035156 14.125 -60.304688 18.625 -67.171875 C 23.132812 -74.046875 29.148438 -79.320312 36.671875 -83 C 44.203125 -86.675781 52.421875 -88.515625 61.328125 -88.515625 C 69.566406 -88.515625 77.035156 -86.726562 83.734375 -83.15625 C 90.441406 -79.59375 95.800781 -74.675781 99.8125 -68.40625 C 103.820312 -62.144531 105.828125 -54.835938 105.828125 -46.484375 L 105.671875 -38.578125 L 29.015625 -38.578125 C 30.328125 -30.992188 34.222656 -25.003906 40.703125 -20.609375 C 47.191406 -16.210938 55.328125 -14.015625 65.109375 -14.015625 C 72.253906 -14.015625 78.109375 -15.140625 82.671875 -17.390625 C 87.234375 -19.640625 91 -21.8125 93.96875 -23.90625 Z M 61.328125 -72.859375 C 53.523438 -72.859375 46.707031 -71.289062 40.875 -68.15625 C 35.050781 -65.03125 31.257812 -59.675781 29.5 -52.09375 L 88.515625 -52.09375 L 88.515625 -53.90625 C 88.078125 -57.644531 86.539062 -60.941406 83.90625 -63.796875 C 81.269531 -66.648438 77.945312 -68.875 73.9375 -70.46875 C 69.925781 -72.0625 65.722656 -72.859375 61.328125 -72.859375 Z M 61.328125 -72.859375 "/></g></g></g><g fill="#000000" fill-opacity="1"><g transform="translate(215.523085, 415.135123)"><g><path d="M 107.484375 -121.984375 L 107.484375 0 L 90.5 0 L 90.5 -13.515625 C 88.519531 -10.984375 85.851562 -8.5625 82.5 -6.25 C 79.15625 -3.945312 75.335938 -2.050781 71.046875 -0.5625 C 66.765625 0.914062 62.148438 1.65625 57.203125 1.65625 C 48.410156 1.65625 40.578125 -0.265625 33.703125 -4.109375 C 26.835938 -7.960938 21.484375 -13.296875 17.640625 -20.109375 C 13.796875 -26.921875 11.875 -34.671875 11.875 -43.359375 C 11.875 -52.148438 13.847656 -59.921875 17.796875 -66.671875 C 21.753906 -73.429688 27.164062 -78.734375 34.03125 -82.578125 C 40.90625 -86.429688 48.679688 -88.359375 57.359375 -88.359375 C 64.617188 -88.359375 71.160156 -87.035156 76.984375 -84.390625 C 82.804688 -81.753906 87.3125 -78.625 90.5 -75 L 90.5 -121.984375 Z M 60.171875 -13.359375 C 66.328125 -13.359375 71.738281 -14.675781 76.40625 -17.3125 C 81.070312 -19.945312 84.695312 -23.515625 87.28125 -28.015625 C 89.863281 -32.523438 91.15625 -37.640625 91.15625 -43.359375 C 91.15625 -49.066406 89.863281 -54.171875 87.28125 -58.671875 C 84.695312 -63.179688 81.070312 -66.726562 76.40625 -69.3125 C 71.738281 -71.894531 66.328125 -73.1875 60.171875 -73.1875 C 54.128906 -73.1875 48.769531 -71.894531 44.09375 -69.3125 C 39.425781 -66.726562 35.769531 -63.179688 33.125 -58.671875 C 30.488281 -54.171875 29.171875 -49.066406 29.171875 -43.359375 C 29.171875 -37.640625 30.488281 -32.523438 33.125 -28.015625 C 35.769531 -23.515625 39.425781 -19.945312 44.09375 -17.3125 C 48.769531 -14.675781 54.128906 -13.359375 60.171875 -13.359375 Z M 60.171875 -13.359375 "/></g></g></g><g fill="#000000" fill-opacity="1"><g transform="translate(341.796402, 415.135123)"><g><path d="M 102.03125 -11.375 L 101.875 -11.375 C 99.125 -9.175781 95.6875 -7.0625 91.5625 -5.03125 C 87.445312 -3 82.914062 -1.375 77.96875 -0.15625 C 73.019531 1.050781 67.96875 1.65625 62.8125 1.65625 C 52.8125 1.65625 43.960938 -0.238281 36.265625 -4.03125 C 28.578125 -7.820312 22.585938 -13.039062 18.296875 -19.6875 C 14.015625 -26.34375 11.875 -33.898438 11.875 -42.359375 C 11.875 -52.035156 14.125 -60.304688 18.625 -67.171875 C 23.132812 -74.046875 29.148438 -79.320312 36.671875 -83 C 44.203125 -86.675781 52.421875 -88.515625 61.328125 -88.515625 C 69.566406 -88.515625 77.035156 -86.726562 83.734375 -83.15625 C 90.441406 -79.59375 95.800781 -74.675781 99.8125 -68.40625 C 103.820312 -62.144531 105.828125 -54.835938 105.828125 -46.484375 L 105.671875 -38.578125 L 29.015625 -38.578125 C 30.328125 -30.992188 34.222656 -25.003906 40.703125 -20.609375 C 47.191406 -16.210938 55.328125 -14.015625 65.109375 -14.015625 C 72.253906 -14.015625 78.109375 -15.140625 82.671875 -17.390625 C 87.234375 -19.640625 91 -21.8125 93.96875 -23.90625 Z M 61.328125 -72.859375 C 53.523438 -72.859375 46.707031 -71.289062 40.875 -68.15625 C 35.050781 -65.03125 31.257812 -59.675781 29.5 -52.09375 L 88.515625 -52.09375 L 88.515625 -53.90625 C 88.078125 -57.644531 86.539062 -60.941406 83.90625 -63.796875 C 81.269531 -66.648438 77.945312 -68.875 73.9375 -70.46875 C 69.925781 -72.0625 65.722656 -72.859375 61.328125 -72.859375 Z M 61.328125 -72.859375 "/></g></g></g><g fill="#000000" fill-opacity="1"><g transform="translate(461.146097, 415.135123)"><g><path d="M 77.96875 -67.25 C 76.320312 -68.132812 74.316406 -68.878906 71.953125 -69.484375 C 69.585938 -70.085938 67.253906 -70.390625 64.953125 -70.390625 C 60.222656 -70.390625 55.878906 -69.257812 51.921875 -67 C 47.960938 -64.75 44.773438 -61.78125 42.359375 -58.09375 C 39.941406 -54.414062 38.734375 -50.328125 38.734375 -45.828125 L 38.734375 0 L 21.59375 0 L 21.59375 -86.546875 L 38.734375 -86.546875 L 38.734375 -69.234375 C 41.816406 -74.734375 46.078125 -79.296875 51.515625 -82.921875 C 56.953125 -86.546875 62.582031 -88.359375 68.40625 -88.359375 C 71.15625 -88.359375 73.820312 -88.082031 76.40625 -87.53125 C 78.988281 -86.976562 80.992188 -86.265625 82.421875 -85.390625 Z M 77.96875 -67.25 "/></g></g></g><g fill="#000000" fill-opacity="1"><g transform="translate(552.47173, 415.135123)"><g><path d="M 102.03125 -11.375 L 101.875 -11.375 C 99.125 -9.175781 95.6875 -7.0625 91.5625 -5.03125 C 87.445312 -3 82.914062 -1.375 77.96875 -0.15625 C 73.019531 1.050781 67.96875 1.65625 62.8125 1.65625 C 52.8125 1.65625 43.960938 -0.238281 36.265625 -4.03125 C 28.578125 -7.820312 22.585938 -13.039062 18.296875 -19.6875 C 14.015625 -26.34375 11.875 -33.898438 11.875 -42.359375 C 11.875 -52.035156 14.125 -60.304688 18.625 -67.171875 C 23.132812 -74.046875 29.148438 -79.320312 36.671875 -83 C 44.203125 -86.675781 52.421875 -88.515625 61.328125 -88.515625 C 69.566406 -88.515625 77.035156 -86.726562 83.734375 -83.15625 C 90.441406 -79.59375 95.800781 -74.675781 99.8125 -68.40625 C 103.820312 -62.144531 105.828125 -54.835938 105.828125 -46.484375 L 105.671875 -38.578125 L 29.015625 -38.578125 C 30.328125 -30.992188 34.222656 -25.003906 40.703125 -20.609375 C 47.191406 -16.210938 55.328125 -14.015625 65.109375 -14.015625 C 72.253906 -14.015625 78.109375 -15.140625 82.671875 -17.390625 C 87.234375 -19.640625 91 -21.8125 93.96875 -23.90625 Z M 61.328125 -72.859375 C 53.523438 -72.859375 46.707031 -71.289062 40.875 -68.15625 C 35.050781 -65.03125 31.257812 -59.675781 29.5 -52.09375 L 88.515625 -52.09375 L 88.515625 -53.90625 C 88.078125 -57.644531 86.539062 -60.941406 83.90625 -63.796875 C 81.269531 -66.648438 77.945312 -68.875 73.9375 -70.46875 C 69.925781 -72.0625 65.722656 -72.859375 61.328125 -72.859375 Z M 61.328125 -72.859375 "/></g></g></g></svg>