<svg width="16" height="16" viewBox="0 0 16 16" fill="none" xmlns="http://www.w3.org/2000/svg">
<path d="M7.15397 8.1084C7.39273 8.30385 7.69177 8.41065 8.00033 8.41065C8.30888 8.41065 8.60792 8.30385 8.84668 8.1084L14.7028 3.29789C14.4552 2.99738 14.1444 2.75513 13.7925 2.58836C13.4407 2.42159 13.0564 2.33441 12.667 2.33301H3.33366C2.94428 2.33441 2.55999 2.42159 2.20812 2.58836C1.85626 2.75513 1.54547 2.99738 1.29785 3.29789L7.15397 8.1084Z" fill="#055E2C"/>
<path d="M9.69303 9.13856C9.21534 9.52907 8.61732 9.74241 8.00033 9.74241C7.38333 9.74241 6.78531 9.52907 6.30762 9.13856L0.713219 4.54297C0.68458 4.69342 0.669113 4.84609 0.666992 4.99923V10.9992C0.667746 11.7062 0.948939 12.3841 1.44887 12.884C1.94881 13.3839 2.62665 13.6651 3.33366 13.6659H12.667C13.374 13.6651 14.0518 13.3839 14.5518 12.884C15.0517 12.3841 15.3329 11.7062 15.3337 10.9992V4.99923C15.3315 4.84609 15.3161 4.69342 15.2874 4.54297L9.69303 9.13856Z" fill="#055E2C"/>
</svg>
