<svg width="84" height="84" viewBox="0 0 84 84" fill="none" xmlns="http://www.w3.org/2000/svg">
<path d="M12.4152 35.0623C12.3361 35.0895 12.1503 35.1944 12.0488 35.3106C10.6569 36.8739 10.1678 37.5983 8.67353 39.678C8.02767 53.0273 8.54671 66.0628 8.80042 79.1283C33.3414 79.9039 37.9654 78.6945 71.0837 79.5088C72.7048 78.5327 73.6354 77.9266 74.7825 76.2905C74.9704 76.1206 75.0916 75.8804 75.0784 75.6081C74.463 62.8272 76.1935 50.5479 75.4475 37.4795C75.4287 37.147 74.6727 36.4504 74.5566 36.3755C72.1315 34.8126 69.5671 32.8702 66.7352 30.4618C67.3008 22.1782 68.0588 13.4548 67.8186 5.36653C67.7959 4.57916 66.7819 4.56203 66.6628 4.52343C52.0394 6.17671 36.5607 5.08358 22.0492 4.58837C21.4675 4.27338 20.4449 4.75069 20.5839 5.58578C20.2484 6.19731 19.8205 6.87456 19.4883 7.28515C19.4851 7.41568 19.2453 22.9678 19.3421 29.1429C17.5821 30.5974 15.5225 32.2108 12.4152 35.0623ZM32.9911 56.2461C26.2382 62.3028 19.3635 68.5055 13.5881 74.3192C13.6517 61.798 14.5445 50.3217 13.6995 38.1223C13.8162 38.2392 31.3615 55.8797 32.9911 56.2461ZM16.3459 74.0355C24.8417 65.6568 35.3042 56.6409 43.9567 48.7062C53.034 57.7189 64.3894 66.8676 73.3565 75.7969C73.3588 75.81 73.363 75.8223 73.3659 75.8352C57.7224 74.6514 26.0554 73.1069 16.3459 74.0355ZM73.7467 38.9167C74.2457 50.1715 73.094 60.2641 73.2039 71.1525C73.0421 70.6685 72.7325 70.1906 72.1479 69.6907C68.7076 66.7497 62.3092 61.5376 55.4322 56.2758C61.4556 50.3206 67.6777 44.8904 73.7467 38.9167ZM72.8552 37.3394C70.6924 39.4781 68.4274 41.6244 66.1593 43.7396C66.1838 40.1116 66.356 36.3725 66.5956 32.6231C68.8137 34.4636 70.8813 36.0214 72.8552 37.3394ZM66.0926 6.34179C66.3481 18.9357 64.2998 32.7451 64.3934 45.3818C60.9292 48.5983 57.3648 51.8942 54.0294 55.2009C50.6821 52.6614 50.3582 52.6376 44.8089 47.0897C44.2324 46.5132 43.6953 46.5724 43.3596 46.8812C40.4653 49.5441 37.3467 52.3412 34.0455 55.3001C33.9371 54.4037 33.2294 54.8844 22.4918 44.3957C22.6838 44.2352 22.8131 44.003 22.8131 43.7332C22.8131 30.4603 22.5217 19.5124 22.5078 6.35546C36.8039 6.85907 51.8624 7.87264 66.0926 6.34179ZM19.8279 41.7718C18.196 40.1518 16.609 38.5603 14.022 35.969C15.6454 34.4946 17.4102 32.98 19.3856 31.3675C19.4554 34.8449 19.5728 38.3314 19.8279 41.7718Z" fill="#BD6E00"/>
<path d="M28.5422 26.0192H41.2616C41.7447 26.0192 42.1366 25.6273 42.1366 25.1442V12.4248C42.1366 11.9417 41.7447 11.5498 41.2616 11.5498H28.5422C28.0591 11.5498 27.6672 11.9417 27.6672 12.4248V25.1442C27.6672 25.6273 28.0591 26.0192 28.5422 26.0192ZM29.4172 13.2998H40.3866V24.2692H29.4172V13.2998Z" fill="#BD6E00"/>
<path d="M47.3763 17.9468H58.6277C59.1108 17.9468 59.5027 17.5549 59.5027 17.0718C59.5027 16.5887 59.1108 16.1968 58.6277 16.1968H47.3763C46.8933 16.1968 46.5013 16.5887 46.5013 17.0718C46.5013 17.5549 46.8933 17.9468 47.3763 17.9468Z" fill="#BD6E00"/>
<path d="M54.9591 24.1846C55.4422 24.1846 55.8341 23.7926 55.8341 23.3096C55.8341 22.8265 55.4422 22.4346 54.9591 22.4346H48.2325C47.7495 22.4346 47.3575 22.8265 47.3575 23.3096C47.3575 23.7926 47.7495 24.1846 48.2325 24.1846H54.9591Z" fill="#BD6E00"/>
<path d="M58.0165 33.1968H28.9091C28.426 33.1968 28.0341 33.5887 28.0341 34.0718C28.0341 34.5549 28.426 34.9468 28.9091 34.9468H58.0165C58.4996 34.9468 58.8915 34.5549 58.8915 34.0718C58.8915 33.5887 58.4996 33.1968 58.0165 33.1968Z" fill="#BD6E00"/>
<path d="M35.1463 40.4121H28.7866C28.3035 40.4121 27.9116 40.804 27.9116 41.2871C27.9116 41.7702 28.3035 42.1621 28.7866 42.1621H35.1463C35.6293 42.1621 36.0213 41.7702 36.0213 41.2871C36.0213 40.804 35.6293 40.4121 35.1463 40.4121Z" fill="#BD6E00"/>
</svg>
