<svg width="105" height="105" viewBox="0 0 105 105" fill="none" xmlns="http://www.w3.org/2000/svg">
<path d="M51.7279 74.4265H52.6544C61.3014 74.1177 69.4853 68.4044 73.0367 60.2206C74.4264 56.9779 75.1985 53.5809 74.8897 50.3382C74.5809 44.3162 71.0294 38.2941 65.625 34.5882C61.4558 31.8088 56.0514 30.2647 50.647 30.2647C45.2426 30.4191 40.3014 34.125 37.9853 36.2868C35.9779 38.1397 34.2794 40.1471 33.0441 42.4632C29.8014 48.3309 29.3382 55.2794 31.8088 61.1471C34.7426 69.0221 43.0808 74.4265 51.7279 74.4265ZM34.897 43.6985C35.9779 41.6912 37.522 39.8382 39.375 38.1397C43.0808 34.7427 47.0956 32.7353 50.4926 32.7353H50.9558C55.897 32.7353 60.5294 34.125 64.2353 36.5956C69.022 39.8382 72.2647 45.2427 72.5735 50.4927C72.7279 53.2721 72.1103 56.3603 70.875 59.2941C67.6323 66.5515 60.2206 71.8015 52.5 72.1103C44.625 72.4191 36.75 67.4779 33.8161 60.375C31.6544 55.125 32.1176 48.9485 34.897 43.6985Z" fill="#BD6E00"/>
<path d="M6.17645 100.368C7.87498 100.676 9.72792 99.75 10.6544 98.2059C11.5809 96.8162 12.0441 94.9632 12.3529 93.2647C13.7426 86.625 15.1323 79.9853 16.522 73.3456C16.8309 72.1103 17.1397 70.7206 17.2941 69.3309C19.7647 76.5882 25.6323 82.7647 32.4264 86.625C42.9264 92.4927 55.897 93.728 67.0147 89.4044C74.5809 86.4706 81.0662 80.9118 85.2353 73.9632C86.7794 71.6471 88.1691 69.0221 89.0956 66.3971C89.25 67.1691 89.4044 67.7868 89.5588 68.5588V68.8676C90.022 75.0441 90.4853 81.375 90.9485 87.5515C91.1029 90.4853 91.7206 94.0368 94.5 95.2721C97.125 96.5074 100.522 94.3456 101.294 91.4118C101.603 90.6397 101.757 90.0221 101.757 89.25C101.757 87.3971 101.14 85.8529 100.522 84.3088C100.368 83.8456 100.059 83.3824 99.9044 82.9191C97.2794 75.9706 95.4264 67.6324 93.8823 59.6029C93.7279 59.1397 93.8823 58.8309 94.0367 58.5221C94.8088 56.6691 94.5 54.6618 94.1912 52.5C92.1838 41.0735 90.3309 30.8824 87.2426 20.8456C87.0882 20.5368 86.9338 20.0735 86.9338 19.6103C86.625 18.5294 86.3162 17.2941 85.6985 16.2132C85.2353 15.2868 84.4632 14.6691 83.5367 14.5147C82.6103 14.3603 81.5294 14.6691 80.9117 15.4412C79.522 16.9853 78.4411 19.3015 78.1323 20.8456C77.9779 21.6176 77.8235 22.2353 77.8235 23.0073C71.0294 17.4485 62.2279 14.3603 53.272 14.3603H53.1176C44.1617 14.3603 34.5882 18.375 27.4853 25.1691C26.4044 26.25 25.3235 27.3309 24.397 28.4118C23.1617 27.6397 21.6176 27.1765 19.7647 27.1765C16.8309 27.0221 13.7426 28.7206 11.7353 31.3456C11.4264 31.5 11.1176 31.8088 10.9632 32.2721C10.1912 33.5074 9.72792 34.8971 9.26468 36.2868C8.33821 39.0662 8.49263 42 9.11027 44.9338C9.88233 48.3309 11.8897 51.5735 12.1985 55.125C12.5073 57.75 11.7353 60.2206 11.1176 62.6912C9.72792 67.9412 8.33821 73.5 6.7941 79.0588C5.71321 83.0735 4.63233 87.2427 3.70586 91.2574C3.24263 92.9559 2.77939 94.8088 3.08821 96.5074C3.24263 98.2059 4.47792 100.059 6.17645 100.368ZM82.6103 16.9853C82.9191 16.6765 83.0735 16.8309 83.2279 16.8309C83.3823 16.8309 83.5367 16.9853 83.6912 17.1397C84.1544 18.0662 84.4632 19.1471 84.772 20.2279C84.9264 20.6912 85.0809 21.1544 85.0809 21.4632C88.1691 31.3456 90.022 41.5368 92.0294 52.8088C92.3382 54.5074 92.647 56.2059 92.0294 57.4412C91.7206 58.2132 91.5662 59.1397 91.7206 59.9118C93.2647 67.9412 95.1176 76.4338 97.897 83.5368C98.0514 84 98.3603 84.4632 98.5147 84.9265C99.1323 86.3162 99.5956 87.5515 99.5956 88.9412C99.5956 90.4853 98.5147 92.0294 97.125 92.0294C96.0441 92.0294 95.1176 90.9485 94.8088 90.0221C94.3456 88.9412 94.3456 87.5515 94.1912 86.1618V85.8529C94.0367 78.4412 92.647 70.1029 90.3309 61.6103C90.1764 61.1471 90.022 60.6838 90.022 60.2206C89.7132 59.1397 89.0956 58.3676 88.1691 57.5956C86.7794 56.5147 86.1617 54.5074 85.5441 52.5C82.6103 42.7721 80.9117 34.5882 79.9853 26.8676C79.9853 26.25 79.8309 25.7868 79.8309 25.1691C79.8309 23.7794 79.9853 22.5441 80.2941 21.1544C80.7573 20.0735 81.5294 18.0662 82.6103 16.9853ZM28.875 26.7132C35.5147 20.3823 44.625 16.6765 52.9632 16.5221H53.1176C62.0735 16.5221 71.0294 19.9191 77.6691 25.7868C77.6691 26.25 77.6691 26.7132 77.8235 27.1765C78.75 35.2059 80.6029 43.3897 83.5367 53.2721C84.3088 55.5882 85.2353 58.0588 87.0882 59.4485C87.5514 59.9118 87.8603 60.375 88.1691 60.8382C88.3235 61.1471 88.3235 61.6103 88.4779 61.9191C87.2426 66.3971 85.2353 70.7206 82.3014 74.4265C75.3529 83.5368 63.772 88.9412 52.1912 88.4779C40.6103 88.0147 29.647 81.6838 23.4706 71.9559C20.8456 67.9412 19.147 63.3088 18.375 58.3676C18.6838 56.8235 19.3014 55.5882 20.3823 54.0441C20.6912 53.5809 21.1544 52.9632 21.772 52.3456C22.0809 51.8824 22.5441 51.4191 22.6985 51.1103C25.0147 48.1765 27.3309 44.625 28.2573 40.1471C28.7206 37.6765 29.1838 33.1985 26.7132 29.9559C26.5588 29.8015 26.4044 29.6471 26.25 29.4926C26.8676 28.7206 27.9485 27.7941 28.875 26.7132ZM19.3014 29.3382H19.6103C21.9264 29.4926 23.7794 30.2647 24.8603 31.6544C26.25 33.5074 26.7132 36.5956 25.9412 39.9926C25.0147 44.0073 22.8529 47.25 20.6912 50.0294C20.5367 50.3382 20.0735 50.6471 19.7647 51.1103C19.147 51.7279 18.5294 52.5 18.2206 52.9632C16.9853 54.8162 16.3676 56.2059 15.9044 58.2132V58.3676C15.75 58.9853 15.5956 59.6029 15.5956 60.2206C14.8235 63.9265 14.2059 67.6324 13.5882 71.3382L12.9706 74.2721C11.7353 80.7574 10.5 87.0882 9.26468 93.4191C9.11027 94.1912 8.80145 96.0441 7.87498 96.5074C7.41174 96.8162 6.63968 96.8162 6.17645 96.6618C5.71321 96.5074 5.71321 96.1985 5.71321 96.0441C5.5588 95.2721 5.71321 93.4191 6.33086 91.1029C8.33821 83.3824 10.1912 75.8162 12.1985 68.0956C12.6617 66.0882 13.2794 63.9265 13.7426 61.9191C14.2059 60.2206 14.6691 58.5221 14.9779 56.9779C15.5956 54.3529 14.8235 52.0368 14.0514 49.875C13.7426 49.2574 13.5882 48.6397 13.4338 48.0221C11.8897 42.9265 10.5 37.3676 13.125 33.1985C14.3603 31.3456 16.6764 29.3382 19.3014 29.3382Z" fill="#BD6E00"/>
<path d="M20.6912 13.897C20.3823 13.4338 19.6103 13.2794 19.147 13.5882C18.6838 13.897 18.5294 14.6691 18.8382 15.1323C20.3823 17.1397 22.2353 18.9926 24.2426 20.5367C24.397 20.6912 24.7059 20.6912 24.8603 20.6912C25.1691 20.6912 25.6323 20.5367 25.7868 20.2279C26.0956 19.7647 26.0956 18.9926 25.4779 18.6838C23.625 17.4485 21.9265 15.9044 20.6912 13.897Z" fill="#BD6E00"/>
<path d="M28.7205 17.1397H29.0294C29.647 16.9853 29.9558 16.3676 29.8014 15.75L27.7941 8.33823C27.6397 7.72059 27.022 7.41176 26.4044 7.56617C25.7867 7.72059 25.4779 8.33823 25.6323 8.95588L27.7941 16.2132C27.7941 16.8309 28.2573 17.1397 28.7205 17.1397Z" fill="#BD6E00"/>
<path d="M34.7427 5.71322L34.2794 14.2059C34.2794 14.8235 34.7427 15.4412 35.3603 15.4412C35.9779 15.4412 36.4412 14.9779 36.4412 14.3603L36.9044 5.86763C36.9044 5.24999 36.4412 4.63234 35.8235 4.63234C35.2059 4.47793 34.7427 4.94116 34.7427 5.71322Z" fill="#BD6E00"/>
<path d="M48.9485 47.5588H49.2573C50.0294 47.5588 50.8014 47.0956 51.2647 46.4779C51.7279 45.8603 51.8823 44.9338 51.7279 44.0074C51.4191 43.2353 50.9559 42.4632 50.1838 42.3088C49.5662 42.1544 48.9485 42.1544 48.3309 42.4632C48.3309 42.4632 48.3309 42.4632 48.1764 42.4632C47.7132 42.1544 46.9412 42.3088 46.6323 42.7721C45.7059 44.0074 45.8603 45.8603 47.0956 46.9412C47.4044 47.25 48.1764 47.5588 48.9485 47.5588ZM49.2573 44.4706L49.4117 44.625V44.9338C49.4117 45.0882 49.2573 45.0882 49.1029 45.0882C49.1029 44.9338 49.1029 44.7794 49.1029 44.625C48.9485 44.625 49.1029 44.4706 49.2573 44.4706Z" fill="#BD6E00"/>
<path d="M43.6985 59.7573C43.6985 60.0662 43.8529 60.2206 43.8529 60.375L44.0073 60.5294C44.3162 60.9926 44.9338 61.4559 45.5515 61.6103H46.0147C46.7868 61.6103 47.4044 61.3015 47.7132 60.8382C48.1765 60.2206 48.3309 59.2941 48.022 58.5221C47.7132 57.75 46.9412 57.1323 46.1691 57.1323C45.8603 57.1323 45.397 57.2868 45.2426 57.5956C45.0882 56.9779 44.3162 56.6691 43.6985 56.9779C43.0809 57.1323 42.772 57.9044 43.0809 58.5221L43.6985 59.7573Z" fill="#BD6E00"/>
<path d="M58.0588 47.7132C57.9044 48.1765 57.9044 48.7941 58.0588 49.4118C58.3676 50.0294 58.9853 50.4926 59.7573 50.6471H59.9118C60.375 50.6471 60.8382 50.3382 60.9926 49.875C61.3015 48.9485 61.3015 48.0221 60.8382 47.0956C60.375 46.1691 59.4485 45.5515 58.5221 45.3971C57.9044 45.2426 57.2868 45.7059 57.1323 46.3235C56.9779 46.9412 57.4412 47.5588 58.0588 47.7132Z" fill="#BD6E00"/>
<path d="M53.5809 41.6912H53.7353C54.0441 41.6912 54.5074 41.5367 54.6618 41.2279C55.125 41.0735 55.4338 40.7647 55.4338 40.3014C55.5882 39.6838 55.125 39.0662 54.5074 38.9117C54.0441 38.7573 53.5809 38.9117 53.2721 39.2206C52.9632 39.5294 52.6544 39.8382 52.5 40.3014C52.5 40.9191 52.9632 41.5367 53.5809 41.6912Z" fill="#BD6E00"/>
<path d="M58.8309 60.2206C58.2132 60.2206 57.5956 60.6838 57.5956 61.3015C57.5956 61.7647 57.75 62.2279 58.2132 62.3823C57.75 62.5368 57.5956 62.8456 57.4412 63.3088C57.2868 63.9265 57.75 64.5441 58.3677 64.5441H58.6765C59.1397 64.5441 59.6029 64.3897 60.0662 64.0809C60.5294 63.7721 60.8382 63.1544 60.8382 62.5368C60.8382 61.9191 60.6838 61.3015 60.375 60.8382C59.9118 60.5294 59.2941 60.2206 58.8309 60.2206Z" fill="#BD6E00"/>
<path d="M40.3014 51.7279C40.4559 51.7279 40.6103 51.7279 40.7647 51.5735C41.3823 51.2647 41.6912 50.647 41.3823 50.0294C41.2279 49.7206 41.0735 49.5662 40.9191 49.4117C40.7647 49.2573 40.6103 48.9485 40.4559 48.9485C39.8382 48.6397 39.2206 48.7941 38.9117 49.4117C38.6029 50.0294 38.7573 50.647 39.0662 51.1103C39.5294 51.5735 39.8382 51.7279 40.3014 51.7279Z" fill="#BD6E00"/>
<path d="M56.8235 57.9044H57.2867C57.9044 57.9044 58.522 57.4412 58.522 56.6691C58.522 55.8971 57.9044 55.5882 57.2867 55.5882H56.8235C56.2058 55.5882 55.5882 56.0515 55.5882 56.8235C55.5882 57.5956 56.2058 57.9044 56.8235 57.9044Z" fill="#BD6E00"/>
</svg>
