<svg width="36" height="36" viewBox="0 0 36 36" fill="none" xmlns="http://www.w3.org/2000/svg">
<g clip-path="url(#clip0_1_306)">
<path d="M14.3227 26.8791C13.6884 28.2657 11.572 31.5001 5.625 31.5001C5.32663 31.5001 5.04049 31.3815 4.82951 31.1706C4.61853 30.9596 4.5 30.6734 4.5 30.3751C4.5 24.428 7.73438 22.3116 9.12094 21.6774C9.25538 21.6161 9.40058 21.5819 9.54825 21.5767C9.69592 21.5715 9.84317 21.5954 9.98158 21.6471C10.12 21.6988 10.2469 21.7773 10.355 21.8781C10.4631 21.9788 10.5503 22.0998 10.6116 22.2343C10.6729 22.3687 10.7071 22.5139 10.7123 22.6616C10.7175 22.8093 10.6936 22.9565 10.6418 23.0949C10.5901 23.2334 10.5117 23.3602 10.4109 23.4683C10.3102 23.5764 10.1891 23.6636 10.0547 23.7249C9.15047 24.1369 7.155 25.463 6.80344 29.1966C10.537 28.8451 11.8659 26.8496 12.2752 25.9454C12.3365 25.8109 12.4237 25.6899 12.5318 25.5891C12.6398 25.4884 12.7667 25.4099 12.9051 25.3582C13.0436 25.3065 13.1908 25.2826 13.3385 25.2878C13.4861 25.293 13.6313 25.3272 13.7658 25.3885C13.9002 25.4498 14.0213 25.537 14.122 25.6451C14.2228 25.7532 14.3012 25.8801 14.3529 26.0185C14.4046 26.1569 14.4286 26.3042 14.4234 26.4518C14.4182 26.5995 14.384 26.7447 14.3227 26.8791ZM31.4789 6.62913C31.4456 6.08059 31.2126 5.56322 30.824 5.17462C30.4354 4.78603 29.9181 4.55309 29.3695 4.51976C27.6005 4.41429 23.0794 4.57601 19.3289 8.32648L12.375 15.286C12.2706 15.3906 12.1466 15.4736 12.01 15.5303C11.8735 15.587 11.7272 15.6163 11.5794 15.6164C11.2808 15.6167 10.9944 15.4983 10.7831 15.2874C10.5718 15.0765 10.453 14.7903 10.4527 14.4918C10.4525 14.1932 10.5708 13.9068 10.7817 13.6955L14.5167 9.95913C14.5949 9.88048 14.6481 9.78046 14.6696 9.67166C14.6911 9.56285 14.68 9.45012 14.6376 9.34763C14.5952 9.24513 14.5235 9.15746 14.4314 9.09562C14.3394 9.03378 14.2311 9.00054 14.1202 9.00007H10.4555C10.1591 8.99851 9.86535 9.05589 9.59134 9.16887C9.31733 9.28185 9.06852 9.44819 8.85938 9.6582L4.03594 14.4844C3.74013 14.7801 3.53256 15.1522 3.43652 15.5593C3.34049 15.9663 3.35978 16.392 3.49224 16.7887C3.62471 17.1853 3.8651 17.5372 4.18643 17.8049C4.50777 18.0725 4.89733 18.2453 5.31141 18.3038L10.7213 19.059L16.9383 25.276L17.6934 30.6887C17.7515 31.1028 17.9243 31.4924 18.1921 31.8134C18.46 32.1345 18.8124 32.3742 19.2094 32.5055C19.4406 32.5828 19.6828 32.6222 19.9266 32.6223C20.2218 32.6228 20.5141 32.5649 20.7869 32.452C21.0596 32.339 21.3073 32.1732 21.5156 31.9641L26.3419 27.1407C26.5513 26.9311 26.7172 26.6822 26.8301 26.4083C26.9431 26.1344 27.0008 25.8409 27 25.5446V21.8799C26.9998 21.7687 26.9667 21.6601 26.9048 21.5677C26.8429 21.4753 26.755 21.4034 26.6522 21.361C26.5494 21.3185 26.4363 21.3075 26.3273 21.3293C26.2183 21.3511 26.1181 21.4047 26.0395 21.4834L22.3031 25.2184C22.1938 25.3277 22.0632 25.4134 21.9193 25.4701C21.7754 25.5267 21.6214 25.5531 21.4669 25.5475C21.3124 25.542 21.1607 25.5047 21.0212 25.4379C20.8818 25.3711 20.7576 25.2762 20.6564 25.1593C20.4719 24.9361 20.3781 24.6516 20.3937 24.3623C20.4094 24.0731 20.5333 23.8004 20.7408 23.5984L27.6694 16.6698C31.4227 12.9179 31.5844 8.39679 31.4789 6.62632V6.62913Z" fill="white"/>
</g>
<defs>
<clipPath id="clip0_1_306">
<rect width="36" height="36" fill="white"/>
</clipPath>
</defs>
</svg>
