<svg width="99" height="96" viewBox="0 0 99 96" fill="none" xmlns="http://www.w3.org/2000/svg">
<path d="M48.7397 69.8237H49.6662C58.3132 69.5149 66.497 63.8017 70.0485 55.6178C71.4382 52.3752 72.2103 48.9781 71.9015 45.7355C71.5926 39.7134 68.0412 33.6914 62.6367 29.9855C58.4676 27.2061 53.0632 25.662 47.6588 25.662C42.2544 25.8164 37.3132 29.5223 34.997 31.684C32.9897 33.537 31.2912 35.5443 30.0559 37.8605C26.8132 43.7281 26.35 50.6767 28.8206 56.5443C31.7544 64.4193 40.0926 69.8237 48.7397 69.8237ZM31.9088 39.0958C32.9897 37.0884 34.5338 35.2355 36.3867 33.537C40.0926 30.1399 44.1073 28.1325 47.5044 28.1325H47.9676C52.9088 28.1325 57.5412 29.5223 61.247 31.9928C66.0338 35.2355 69.2765 40.6399 69.5853 45.8899C69.7397 48.6693 69.122 51.7575 67.8867 54.6914C64.6441 61.9487 57.2323 67.1987 49.5117 67.5075C41.6367 67.8164 33.7617 62.8752 30.8279 55.7723C28.6662 50.5223 29.1294 44.3458 31.9088 39.0958Z" fill="#BD6E00"/>
<path d="M3.18823 95.7649C4.88676 96.0737 6.7397 95.1473 7.66617 93.6031C8.59264 92.2134 9.05588 90.3605 9.3647 88.662C10.7544 82.0223 12.1441 75.3825 13.5338 68.7428C13.8426 67.5075 14.1515 66.1178 14.3059 64.7281C16.7765 71.9855 22.6441 78.162 29.4382 82.0222C39.9382 87.8899 52.9088 89.1252 64.0265 84.8017C71.5926 81.8678 78.0779 76.309 82.247 69.3605C83.7912 67.0443 85.1809 64.4193 86.1073 61.7943C86.2618 62.5664 86.4162 63.184 86.5706 63.9561V64.2649C87.0338 70.4414 87.497 76.7723 87.9603 82.9487C88.1147 85.8825 88.7323 89.434 91.5118 90.6693C94.1368 91.9046 97.5338 89.7428 98.3059 86.809C98.6147 86.037 98.7691 85.4193 98.7691 84.6473C98.7691 82.7943 98.1515 81.2502 97.5338 79.7061C97.3794 79.2428 97.0706 78.7796 96.9162 78.3164C94.2912 71.3678 92.4382 63.0296 90.8941 55.0002C90.7397 54.537 90.8941 54.2281 91.0485 53.9193C91.8206 52.0664 91.5118 50.059 91.2029 47.8972C89.1956 36.4708 87.3426 26.2796 84.2544 16.2428C84.1 15.934 83.9456 15.4708 83.9456 15.0075C83.6368 13.9267 83.3279 12.6914 82.7103 11.6105C82.247 10.684 81.475 10.0664 80.5485 9.91195C79.622 9.75754 78.5412 10.0664 77.9235 10.8384C76.5338 12.3825 75.4529 14.6987 75.1441 16.2428C74.9897 17.0149 74.8353 17.6325 74.8353 18.4046C68.0412 12.8458 59.2397 9.75754 50.2838 9.75754H50.1294C41.1735 9.75754 31.6 13.7722 24.4971 20.5664C23.4162 21.6472 22.3353 22.7281 21.4088 23.809C20.1735 23.037 18.6294 22.5737 16.7765 22.5737C13.8426 22.4193 10.7544 24.1178 8.74705 26.7428C8.43823 26.8972 8.12941 27.2061 7.97499 27.6693C7.20293 28.9046 6.7397 30.2943 6.27646 31.684C5.34999 34.4634 5.50441 37.3972 6.12205 40.3311C6.89411 43.7281 8.90146 46.9708 9.21029 50.5223C9.51911 53.1473 8.74705 55.6178 8.12941 58.0884C6.7397 63.3384 5.34999 68.8973 3.80588 74.4561C2.72499 78.4708 1.64411 82.6399 0.717641 86.6546C0.254406 88.3531 -0.20883 90.2061 0.099994 91.9046C0.254406 93.6031 1.4897 95.4561 3.18823 95.7649ZM79.622 12.3825C79.9309 12.0737 80.0853 12.2281 80.2397 12.2281C80.3941 12.2281 80.5485 12.3825 80.7029 12.537C81.1662 13.4634 81.475 14.5443 81.7838 15.6252C81.9382 16.0884 82.0926 16.5517 82.0926 16.8605C85.1809 26.7428 87.0338 36.934 89.0412 48.2061C89.35 49.9046 89.6588 51.6031 89.0412 52.8384C88.7323 53.6105 88.5779 54.537 88.7323 55.309C90.2765 63.3384 92.1294 71.8311 94.9088 78.934C95.0632 79.3972 95.372 79.8605 95.5265 80.3237C96.1441 81.7134 96.6073 82.9487 96.6073 84.3384C96.6073 85.8825 95.5265 87.4267 94.1368 87.4267C93.0559 87.4267 92.1294 86.3458 91.8206 85.4193C91.3573 84.3384 91.3573 82.9487 91.2029 81.559V81.2502C91.0485 73.8384 89.6588 65.5002 87.3426 57.0075C87.1882 56.5443 87.0338 56.0811 87.0338 55.6178C86.725 54.537 86.1073 53.7649 85.1809 52.9928C83.7912 51.912 83.1735 49.9046 82.5559 47.8972C79.6221 38.1693 77.9235 29.9855 76.997 22.2649C76.997 21.6472 76.8426 21.184 76.8426 20.5664C76.8426 19.1767 76.997 17.9414 77.3059 16.5517C77.7691 15.4708 78.5412 13.4634 79.622 12.3825ZM25.8868 22.1105C32.5265 15.7796 41.6368 12.0737 49.975 11.9193H50.1294C59.0853 11.9193 68.0412 15.3164 74.6809 21.184C74.6809 21.6472 74.6809 22.1105 74.8353 22.5737C75.7618 30.6031 77.6147 38.787 80.5485 48.6693C81.3206 50.9855 82.2471 53.4561 84.1 54.8458C84.5632 55.309 84.872 55.7723 85.1809 56.2355C85.3353 56.5443 85.3353 57.0075 85.4897 57.3164C84.2544 61.7943 82.247 66.1178 79.3132 69.8237C72.3647 78.934 60.7838 84.3384 49.2029 83.8752C37.6221 83.412 26.6588 77.0811 20.4823 67.3531C17.8573 63.3384 16.1588 58.7061 15.3868 53.7649C15.6956 52.2208 16.3132 50.9855 17.3941 49.4414C17.7029 48.9781 18.1662 48.3605 18.7838 47.7428C19.0926 47.2796 19.5559 46.8164 19.7103 46.5075C22.0265 43.5737 24.3426 40.0222 25.2691 35.5443C25.7323 33.0737 26.1956 28.5958 23.725 25.3531C23.5706 25.1987 23.4162 25.0443 23.2618 24.8899C23.8794 24.1178 24.9603 23.1914 25.8868 22.1105ZM16.3132 24.7355H16.6221C18.9382 24.8899 20.7912 25.662 21.8721 27.0517C23.2618 28.9046 23.725 31.9928 22.9529 35.3899C22.0265 39.4046 19.8647 42.6473 17.7029 45.4267C17.5485 45.7355 17.0853 46.0443 16.7765 46.5075C16.1588 47.1252 15.5412 47.8972 15.2323 48.3605C13.9971 50.2134 13.3794 51.6031 12.9162 53.6105V53.7649C12.7618 54.3825 12.6073 55.0002 12.6073 55.6178C11.8353 59.3237 11.2176 63.0296 10.6 66.7355L9.98235 69.6693C8.74705 76.1546 7.51176 82.4855 6.27646 88.8164C6.12205 89.5884 5.81323 91.4414 4.88676 91.9046C4.42352 92.2134 3.65146 92.2134 3.18823 92.059C2.72499 91.9046 2.72499 91.5958 2.72499 91.4414C2.57058 90.6693 2.72499 88.8164 3.34264 86.5002C5.34999 78.7796 7.20293 71.2134 9.21029 63.4928C9.67352 61.4855 10.2912 59.3237 10.7544 57.3164C11.2176 55.6178 11.6809 53.9193 11.9897 52.3752C12.6073 49.7502 11.8353 47.434 11.0632 45.2722C10.7544 44.6546 10.6 44.037 10.4456 43.4193C8.90146 38.3237 7.51176 32.7649 10.1368 28.5958C11.3721 26.7428 13.6882 24.7355 16.3132 24.7355Z" fill="#BD6E00"/>
<path d="M17.7029 9.29429C17.3941 8.83105 16.6221 8.67664 16.1588 8.98547C15.6956 9.29429 15.5412 10.0663 15.85 10.5296C17.3941 12.5369 19.2471 14.3899 21.2544 15.934C21.4088 16.0884 21.7176 16.0884 21.8721 16.0884C22.1809 16.0884 22.6441 15.934 22.7985 15.6252C23.1074 15.1619 23.1074 14.3899 22.4897 14.0811C20.6368 12.8458 18.9382 11.3016 17.7029 9.29429Z" fill="#BD6E00"/>
<path d="M25.7323 12.537H26.0411C26.6588 12.3825 26.9676 11.7649 26.8132 11.1472L24.8058 3.73548C24.6514 3.11783 24.0338 2.80901 23.4161 2.96342C22.7985 3.11783 22.4897 3.73548 22.6441 4.35313L24.8058 11.6105C24.8058 12.2281 25.2691 12.537 25.7323 12.537Z" fill="#BD6E00"/>
<path d="M31.7544 1.11047L31.2912 9.60312C31.2912 10.2208 31.7544 10.8384 32.3721 10.8384C32.9897 10.8384 33.453 10.3752 33.453 9.75753L33.9162 1.26488C33.9162 0.647233 33.453 0.0295856 32.8353 0.0295856C32.2177 -0.124826 31.7544 0.338409 31.7544 1.11047Z" fill="#BD6E00"/>
<path d="M45.9603 42.9561H46.2691C47.0412 42.9561 47.8132 42.4928 48.2765 41.8752C48.7397 41.2575 48.8941 40.3311 48.7397 39.4046C48.4309 38.6325 47.9676 37.8605 47.1956 37.7061C46.5779 37.5517 45.9603 37.5517 45.3426 37.8605C45.3426 37.8605 45.3426 37.8605 45.1882 37.8605C44.725 37.5517 43.9529 37.7061 43.6441 38.1693C42.7176 39.4046 42.8721 41.2575 44.1073 42.3384C44.4162 42.6472 45.1882 42.9561 45.9603 42.9561ZM46.2691 39.8678L46.4235 40.0222V40.3311C46.4235 40.4855 46.2691 40.4855 46.1147 40.4855C46.1147 40.3311 46.1147 40.1767 46.1147 40.0222C45.9603 40.0222 46.1147 39.8678 46.2691 39.8678Z" fill="#BD6E00"/>
<path d="M40.7103 55.1546C40.7103 55.4634 40.8647 55.6178 40.8647 55.7722L41.0191 55.9267C41.3279 56.3899 41.9456 56.8531 42.5632 57.0075H43.0265C43.7985 57.0075 44.4162 56.6987 44.725 56.2355C45.1882 55.6178 45.3427 54.6914 45.0338 53.9193C44.725 53.1472 43.9529 52.5296 43.1809 52.5296C42.8721 52.5296 42.4088 52.684 42.2544 52.9928C42.1 52.3752 41.3279 52.0664 40.7103 52.3752C40.0926 52.5296 39.7838 53.3017 40.0926 53.9193L40.7103 55.1546Z" fill="#BD6E00"/>
<path d="M55.0706 43.1105C54.9162 43.5737 54.9162 44.1914 55.0706 44.809C55.3794 45.4267 55.9971 45.8899 56.7691 46.0443H56.9235C57.3868 46.0443 57.85 45.7355 58.0044 45.2722C58.3132 44.3458 58.3132 43.4193 57.85 42.4928C57.3868 41.5664 56.4603 40.9487 55.5338 40.7943C54.9162 40.6399 54.2985 41.1031 54.1441 41.7208C53.9897 42.3384 54.4529 42.9561 55.0706 43.1105Z" fill="#BD6E00"/>
<path d="M50.5927 37.0884H50.7471C51.0559 37.0884 51.5191 36.934 51.6735 36.6252C52.1368 36.4708 52.4456 36.1619 52.4456 35.6987C52.6 35.081 52.1368 34.4634 51.5191 34.309C51.0559 34.1546 50.5927 34.309 50.2838 34.6178C49.975 34.9266 49.6662 35.2355 49.5118 35.6987C49.5118 36.3163 49.975 36.934 50.5927 37.0884Z" fill="#BD6E00"/>
<path d="M55.8427 55.6178C55.225 55.6178 54.6074 56.0811 54.6074 56.6987C54.6074 57.1619 54.7618 57.6252 55.225 57.7796C54.7618 57.934 54.6074 58.2428 54.453 58.7061C54.2986 59.3237 54.7618 59.9414 55.3794 59.9414H55.6883C56.1515 59.9414 56.6147 59.7869 57.078 59.4781C57.5412 59.1693 57.85 58.5517 57.85 57.934C57.85 57.3164 57.6956 56.6987 57.3868 56.2355C56.9235 55.9267 56.3059 55.6178 55.8427 55.6178Z" fill="#BD6E00"/>
<path d="M37.3132 47.1252C37.4676 47.1252 37.6221 47.1252 37.7765 46.9708C38.3941 46.6619 38.7029 46.0443 38.3941 45.4266C38.2397 45.1178 38.0853 44.9634 37.9309 44.809C37.7765 44.6546 37.6221 44.3458 37.4676 44.3458C36.85 44.0369 36.2323 44.1913 35.9235 44.809C35.6147 45.4266 35.7691 46.0443 36.0779 46.5075C36.5412 46.9708 36.85 47.1252 37.3132 47.1252Z" fill="#BD6E00"/>
<path d="M53.8353 53.3017H54.2985C54.9161 53.3017 55.5338 52.8384 55.5338 52.0664C55.5338 51.2943 54.9161 50.9855 54.2985 50.9855H53.8353C53.2176 50.9855 52.6 51.4487 52.6 52.2208C52.6 52.9928 53.2176 53.3017 53.8353 53.3017Z" fill="#BD6E00"/>
</svg>
