<svg width="28" height="28" viewBox="0 0 28 28" fill="none" xmlns="http://www.w3.org/2000/svg">
<g clip-path="url(#clip0_1_280)">
<path d="M17.9889 21.3973C18.075 21.5293 18.1238 21.6821 18.1303 21.8396C18.1367 21.9971 18.1004 22.1534 18.0254 22.292C17.9503 22.4305 17.8392 22.5463 17.7038 22.6269C17.5684 22.7076 17.4137 22.7502 17.2561 22.7502H1.11891C0.961298 22.7502 0.806615 22.7076 0.671207 22.6269C0.535799 22.5463 0.424693 22.4305 0.349627 22.292C0.274562 22.1534 0.238325 21.9971 0.244745 21.8396C0.251165 21.6821 0.300003 21.5293 0.386099 21.3973C1.61778 19.5014 3.42945 18.0546 5.55079 17.2727C4.37807 16.492 3.48772 15.3546 3.01143 14.0287C2.53513 12.7028 2.49815 11.2589 2.90598 9.91036C3.31381 8.56185 4.14477 7.38038 5.27601 6.54066C6.40724 5.70094 7.77867 5.24756 9.1875 5.24756C10.5963 5.24756 11.9678 5.70094 13.099 6.54066C14.2302 7.38038 15.0612 8.56185 15.469 9.91036C15.8769 11.2589 15.8399 12.7028 15.3636 14.0287C14.8873 15.3546 13.9969 16.492 12.8242 17.2727C14.9456 18.0546 16.7572 19.5014 17.9889 21.3973ZM27.6041 21.3808C26.3721 19.493 24.5644 18.0524 22.4492 17.2727C23.8337 16.3401 24.8107 14.915 25.1815 13.2875C25.5522 11.6599 25.2888 9.95223 24.4449 8.51203C23.601 7.07183 22.2399 6.00736 20.6388 5.53528C19.0377 5.06321 17.3169 5.21902 15.8266 5.971C15.7696 6.00043 15.7198 6.04202 15.6806 6.09283C15.6415 6.14365 15.614 6.20245 15.6002 6.26506C15.5863 6.32768 15.5863 6.39258 15.6003 6.45517C15.6143 6.51776 15.6419 6.5765 15.6811 6.62725C16.7893 8.00954 17.4257 9.71036 17.4971 11.4806C17.5686 13.2508 17.0713 14.9973 16.0781 16.4644C16.0139 16.5603 15.9902 16.6777 16.0121 16.791C16.0341 16.9042 16.0998 17.0043 16.1952 17.0693C17.49 17.973 18.5986 19.1179 19.46 20.4413C19.8074 20.9734 19.9493 21.6137 19.8592 22.2427C19.8491 22.3053 19.8527 22.3693 19.8697 22.4304C19.8868 22.4914 19.9169 22.548 19.958 22.5963C19.999 22.6446 20.0501 22.6833 20.1077 22.7099C20.1652 22.7365 20.2279 22.7502 20.2913 22.7502H26.8866C27.0792 22.7503 27.2665 22.6867 27.4194 22.5695C27.5723 22.4522 27.6822 22.2877 27.732 22.1016C27.7625 21.9792 27.7668 21.8518 27.7447 21.7276C27.7227 21.6034 27.6748 21.4853 27.6041 21.3808Z" fill="white"/>
</g>
<defs>
<clipPath id="clip0_1_280">
<rect width="28" height="28" fill="white"/>
</clipPath>
</defs>
</svg>
