<svg width="71" height="70" viewBox="0 0 71 70" fill="none" xmlns="http://www.w3.org/2000/svg">
<path d="M58.5791 0.0519718C58.1553 -0.105348 57.6806 0.106017 57.5196 0.530354L55.2127 6.63641C55.0522 7.06128 55.2668 7.53538 55.6911 7.69592C56.1213 7.85694 56.5921 7.63774 56.7506 7.21753L59.0575 1.11148C59.218 0.686604 59.0034 0.212503 58.5791 0.0519718Z" fill="#055E2C"/>
<path d="M60.4348 10.4596L66.0732 5.39112C66.4108 5.08771 66.4381 4.56813 66.1347 4.23048C65.8302 3.89229 65.3112 3.865 64.9741 4.16894L59.3357 9.23744C58.9981 9.54084 58.9708 10.0604 59.2742 10.3981C59.5761 10.7339 60.0951 10.7647 60.4348 10.4596Z" fill="#055E2C"/>
<path d="M63.6197 13.3498C63.6733 13.7645 64.027 14.0674 64.4342 14.0674C64.469 14.0674 64.5043 14.0652 64.5396 14.061C66.6415 13.7918 68.7273 13.0983 70.5713 12.0559C70.9662 11.8328 71.1058 11.3314 70.8822 10.936C70.6585 10.5394 70.1566 10.4009 69.7622 10.6251C68.1018 11.5636 66.2236 12.1876 64.3309 12.43C63.8803 12.4878 63.5625 12.8998 63.6197 13.3498Z" fill="#055E2C"/>
<path d="M37.4011 31.9089C42.4815 30.7079 45.6266 25.6163 44.4258 20.5365C43.225 15.4566 38.1331 12.3121 33.0526 13.513C27.9721 14.714 24.8271 19.8055 26.0278 24.8854C27.2286 29.9653 32.3206 33.1098 37.4011 31.9089Z" fill="#055E2C"/>
<path d="M24.0127 67.3952C26.1119 68.203 28.6119 68.5486 30.7727 68.9242C42.8853 71.0296 54.8159 69.0917 58.3135 67.3724C59.5205 66.7791 59.1574 64.9358 57.8148 64.8554C55.091 64.692 52.3513 64.8364 49.656 65.2616C60.5189 59.9315 67.7915 48.711 68.4132 37.3829C69.6487 15.0894 48.899 -0.22098 28.9082 3.45315C1.1421 5.76363 -5.72763 38.5739 4.47691 53.5976C8.57189 59.6265 16.1404 65.4219 24.0127 67.3952ZM10.5285 16.7028C28.7601 -7.44445 68.4481 7.05105 66.7715 37.2924C66.7371 37.4185 66.6322 49.2691 56.2918 58.7416C57.1985 46.0278 47.1094 35.5186 34.7055 35.5186C22.782 35.5186 12.9853 45.2356 13.056 57.3076C2.1947 46.4572 1.7522 28.3279 10.5285 16.7028Z" fill="#055E2C"/>
</svg>
