<svg width="1322" height="992" viewBox="0 0 1322 992" fill="none" xmlns="http://www.w3.org/2000/svg">
<path d="M1040.1 1110.02C1006.85 1097.37 975.01 1080.08 945.3 1058.53C913.419 1035.41 884.796 1007.96 860.215 976.967C835.276 945.508 815.151 911.183 800.406 874.956C780.224 825.375 769.097 771.107 767.434 715.239C752.705 713.302 738.923 711.076 726.354 708.856C667.985 698.553 610.434 683.419 555.284 663.89C498.639 643.821 444.355 619.051 393.942 590.243C285.641 528.355 196.763 449.529 129.792 355.943C94.9236 307.227 66.3366 253.525 44.8139 196.33C23.3722 139.331 9.43682 80.1811 3.41097 20.5275C-9.36471 -106.023 13.8953 -227.187 70.7062 -329.87L151.851 -285.03C56.169 -112.072 77.6014 123.905 205.185 302.165C288.958 419.214 415.78 512.079 566.121 569.294C621.976 590.546 681.039 606.868 742.401 617.707C753.004 619.578 763.293 621.202 773.283 622.588C783.763 554.911 807.599 488.667 842.842 429.636C866.209 390.502 897.37 356.943 930.585 335.152C975.679 305.566 1023 297.903 1067.42 312.99C1105.46 325.914 1136.2 355.327 1153.91 395.8C1169.46 431.315 1173.7 471.771 1165.83 509.73C1156.51 554.714 1132.59 596.957 1096.65 631.889C1064.2 663.44 1023.51 687.746 979.001 702.183C939.391 715.03 898.919 720.154 860.545 720.915C862.595 762.481 871.109 802.926 886.277 840.187C934.117 957.712 1049.88 1040.67 1167.79 1041.92C1237.5 1042.66 1313.81 1016.88 1394.58 965.282C1444.25 933.555 1489.8 895.981 1530.55 853.842C1484.89 785.532 1441.08 714.209 1409.84 635.511C1388.11 580.771 1374.43 526.015 1369.16 472.753C1363.2 412.514 1368.18 355.253 1383.97 302.55C1401.18 245.11 1432.71 192.713 1475.17 151.022C1520.68 106.34 1575.43 77.5938 1633.48 67.9112C1682.55 59.7199 1726.83 66.7953 1761.53 88.3751C1792.59 107.696 1815.47 137.722 1829.51 177.636C1839.33 205.567 1844.82 237.922 1846.27 276.522C1851.83 424.771 1816.9 575.414 1745.27 712.155C1673.63 848.896 1569.66 963.397 1444.59 1043.28C1348.38 1104.72 1254.96 1135.4 1166.91 1134.47C1127.52 1134.06 1088.04 1126.99 1049.57 1113.47C1046.4 1112.36 1043.25 1111.2 1040.11 1110.01L1040.1 1110.02ZM1039.06 401.124C1038.59 400.946 1038.14 400.772 1037.66 400.62C1021.06 394.984 1002.18 398.987 981.543 412.523C960.104 426.588 938.578 450.13 922.473 477.102C894.34 524.214 875.529 575.873 866.42 628.118C897.379 626.972 925.018 622.312 950.292 614.112C1014.93 593.155 1063.91 544.775 1075.07 490.857C1082.06 457.116 1068.95 412.488 1039.06 401.112L1039.06 401.124ZM1703.07 162.288C1688.7 156.821 1669.9 155.712 1648.84 159.227C1570.03 172.374 1499.27 240.675 1472.75 329.18C1442.6 429.866 1468.74 532.836 1495.99 601.488C1520.79 663.976 1555.66 723.232 1593.13 780.594C1700.66 638.024 1760.35 459.292 1753.62 279.893C1751.39 220.501 1737.59 182.496 1712.59 166.958C1709.69 165.155 1706.51 163.597 1703.07 162.288Z" fill="#EFE5D6"/>
</svg>
