<svg width="18" height="18" viewBox="0 0 18 18" fill="none" xmlns="http://www.w3.org/2000/svg">
<g clip-path="url(#clip0_1_166)">
<path d="M17.1077 6.39213L8.07962 15.4203C7.86867 15.6311 7.58263 15.7495 7.28439 15.7495C6.98615 15.7495 6.70011 15.6311 6.48916 15.4203L1.45337 10.3578C1.24277 10.1468 1.12448 9.86094 1.12448 9.56287C1.12448 9.2648 1.24277 8.97891 1.45337 8.76799L2.85962 7.36174C3.07047 7.15178 3.3559 7.0339 3.65345 7.0339C3.951 7.0339 4.23644 7.15178 4.44728 7.36174L7.31251 10.1405L14.116 3.42072C14.3268 3.21055 14.6124 3.09253 14.9101 3.09253C15.2079 3.09253 15.4934 3.21055 15.7043 3.42072L17.107 4.79463C17.2125 4.89916 17.2963 5.02355 17.3535 5.16062C17.4106 5.29769 17.4401 5.44472 17.4402 5.59323C17.4402 5.74174 17.4109 5.8888 17.3538 6.02592C17.2968 6.16303 17.2131 6.2875 17.1077 6.39213Z" fill="white"/>
</g>
<defs>
<clipPath id="clip0_1_166">
<rect width="18" height="18" fill="white"/>
</clipPath>
</defs>
</svg>
